<svg xmlns="http://www.w3.org/2000/svg"
     viewBox="0 0 64 64">
    <path d="M39.294 21.008s-.94-1.286-1.54-2.098c-.598-.812-2.95-4.196-2.95-4.196l-2.137-6.97L31.983 7h-1.966l-.684.744-2.138 6.97s-2.351 3.384-2.95 4.196c-.598.812-1.539 2.098-1.539 2.098L8 46.147l.214 3.755 3.933-2.25-.128-1.167 3.778-4.095.086-.542 4.814 4.197.128 1.387s-6.284 7.884-7.01 8.73c-.728.846-.813 1.42-.813 1.42L13.045 61l8.806-6.022L24 53.552v-6.518l1.742-3.357 2.266-1.794s-.043.339-.129 1.219c-.085.88.599 2.605.599 2.605.813.398 2.256.325 2.522.307.266.018 1.71.091 2.522-.307 0 0 .684-1.726.599-2.605-.086-.88-.128-1.219-.128-1.219l2.265 1.794L38 47.034v6.518l2.149 1.426L48.955 61l.043-3.417s-.085-.575-.812-1.421c-.727-.846-7.011-8.73-7.011-8.73l.128-1.387 4.814-4.197.086.542 3.778 4.095-.128 1.168 3.933 2.25.214-3.756-14.706-25.14Z"></path>
</svg>