<svg xmlns="http://www.w3.org/2000/svg"
     viewBox="0 0 64 64">
    <path d="m39.57 16.336 3.048 8.333-4.818 4.774.436 23.066 1.063 1.328-3.07 3.125-.89-.445L28.7 26.77 39.57 16.336ZM13.917 23.12l13.117 4.007 6.423 29.479-1.394.356-5.125-2.405L13.917 23.12Zm25.69 8.816 8.873 6.68-2.693 16.743-5.698-3.384-.482-20.039Zm18.534 1.247-5.746 16.743-4.176 3.652 2.16-14.695 7.762-5.7Zm-40.962 3.652 5.652 13.877-5.712 1.619L6.105 39.15l11.074-2.316ZM12.817 25.75l1.393 3.425 2.076 5.91L5.631 37.28l-.12-3.235 7.306-8.294Zm36.47-2.123L58.4 30.92l-8.87 6.27-9.388-7.836 9.145-5.726ZM25.804 7l12.79 7.252-10.37 10.417L25.805 7Zm-1.905.623 2.407 17.046-12.445-3.776 10.038-13.27Z"></path>
</svg>