<svg xmlns="http://www.w3.org/2000/svg"
     viewBox="0 0 128 128">
    <path d="M108.306 73.966c-2.288-2.288-6.004-2.288-8.31 0l-36.571 36.572v8.31h8.31l36.571-36.59c2.288-2.288 2.288-6.004 0-8.31v.018ZM75.359 128H87.11a7.85 7.85 0 0 0 7.852-7.852v-11.807l-16.95 16.95-2.653 2.691V128Z"></path>
    <path d="M33.626 89.232h38.017l8.493-8.548H33.607V71.46H83.87v5.491l11.056-10.836V40.196H83.87v-8.219H72.906v8.219H44.535v-8.219H33.607v8.219H22.552v79.933a7.851 7.851 0 0 0 7.852 7.853H54.09v-21.251l8.273-8.219H33.626v-9.28Zm0-35.583h50.262v9.28H33.626v-9.28ZM22.35 22.093a.877.877 0 0 0 .33 1.007c.165.11.348.164.53.164a.954.954 0 0 0 .531-.164l6.444-4.686 6.442 4.686c.165.11.348.164.531.164a.954.954 0 0 0 .531-.164c.311-.22.44-.623.33-1.007l-2.471-7.578 6.406-4.667a.919.919 0 0 0 .403-.75.898.898 0 0 0-.897-.898h-7.98L31.007.622A.902.902 0 0 0 30.166 0a.884.884 0 0 0-.842.622L26.854 8.2H18.89a.884.884 0 0 0-.842.623.877.877 0 0 0 .33 1.006l6.442 4.686-2.47 7.578ZM52.772 14.515 50.3 22.093a.877.877 0 0 0 .33 1.007c.164.11.347.164.53.164a.954.954 0 0 0 .53-.164l6.444-4.686 6.443 4.686c.165.11.347.164.53.164a.954.954 0 0 0 .531-.164c.312-.22.44-.623.33-1.007l-2.471-7.578 6.406-4.667a.919.919 0 0 0 .403-.75.898.898 0 0 0-.897-.898h-7.98L58.957.622A.902.902 0 0 0 58.116 0a.884.884 0 0 0-.842.622L54.804 8.2H46.84a.885.885 0 0 0-.842.623.877.877 0 0 0 .33 1.006l6.443 4.686ZM80.74 14.515l-2.47 7.578a.877.877 0 0 0 .329 1.007c.164.11.347.164.53.164a.954.954 0 0 0 .531-.164l6.443-4.686 6.443 4.686c.165.11.348.164.531.164a.954.954 0 0 0 .53-.164c.312-.22.44-.623.33-1.007l-2.47-7.578 6.406-4.667a.919.919 0 0 0 .402-.75.898.898 0 0 0-.897-.898h-7.98L86.927.622A.902.902 0 0 0 86.085 0a.884.884 0 0 0-.842.622L82.772 8.2H74.81a.885.885 0 0 0-.842.623.877.877 0 0 0 .33 1.006l6.442 4.686Zm9.665-.348 2.654 8.2-2.673-8.2h.019Z"></path>
</svg>