<svg xmlns="http://www.w3.org/2000/svg"
     viewBox="0 0 64 64">
    <clipPath id="icon-topic-racing_0c6e132bf18d8cc456761490637f4420_a">
        <path fill="#fff" d="M0 0h64v64H0z"></path>
    </clipPath>
    <g clip-path="url(#icon-topic-racing_0c6e132bf18d8cc456761490637f4420_a)">
        <path fill="currentColor" d="m46.465 15.615-2.296 3.976c-1.394-.862-2.556-1.877-3.564-3.173l2.296-3.976c1.008 1.296 2.17 2.31 3.564 3.173ZM41.883 23.513l-2.296 3.976c-1.394-.862-2.556-1.877-3.564-3.173l2.295-3.976c1.01 1.296 2.17 2.31 3.565 3.173Z"></path>
        <path stroke="#597398" d="m59.642 20.946.014.008.008.005.009.005.012.007.142.09a12.414 12.414 0 0 1 3.188 2.865l-6.568 11.378c-.972-1.169-2.085-2.106-3.391-2.909l-.008-.005-.008-.004c-1.418-.8-2.894-1.393-4.41-1.908l-.006-.001c-.762-.249-1.527-.484-2.288-.718h-.002l-.001-.001h-.001c-.686-.212-1.368-.421-2.047-.64l-.15-.049a.32.32 0 0 1-.01-.003l-.006-.002-.04-.013-.211-.073c-1.335-.463-2.614-.984-3.835-1.654l-.164-.09-.014-.009-.008-.005-.008-.004-.014-.008-.144-.092a12.411 12.411 0 0 1-3.19-2.866l6.569-11.376c.966 1.162 2.073 2.095 3.37 2.895l.008.005.008.005c1.421.803 2.9 1.398 4.42 1.915l.006.002c.766.25 1.535.487 2.3.722h.002c.686.212 1.369.422 2.048.64l.12.04.007.002.005.001.051.017.233.08c1.336.463 2.614.984 3.836 1.655l.168.093Z"></path>
        <path fill="currentColor" d="m48.483 21.42-2.296 3.977c-1.496-.51-2.94-1.09-4.318-1.867l2.295-3.976c1.38.777 2.822 1.358 4.319 1.867Z"></path>
        <path fill="currentColor" d="m55.3 18.918-2.295 3.977c-1.518-.495-3.052-.938-4.57-1.431l2.295-3.977c1.519.495 3.053.937 4.57 1.431ZM50.71 26.634l-2.296 3.977c-1.518-.495-3.053-.937-4.57-1.431l2.295-3.977c1.518.495 3.052.938 4.57 1.431Z"></path>
        <path fill="currentColor" d="m57.244 24.628-2.296 3.976c-1.379-.777-2.822-1.358-4.318-1.867l2.295-3.976c1.498.51 2.94 1.09 4.319 1.867Z"></path>
        <path fill="currentColor" d="m62.989 23.887-2.296 3.976c-1.008-1.296-2.169-2.31-3.564-3.173l2.295-3.977c1.396.864 2.557 1.878 3.565 3.174ZM58.493 31.53l-2.295 3.977c-1.008-1.296-2.169-2.31-3.564-3.173l2.295-3.976c1.396.863 2.556 1.877 3.564 3.173Z"></path>
        <rect width="1.993" height="48.005" x="42.658" y="12.566" fill="currentColor" rx=".996" transform="rotate(30 42.658 12.566)"></rect>
        <path fill="currentColor" d="m17.628 15.61 2.296 3.976c1.394-.863 2.556-1.878 3.564-3.173l-2.296-3.977c-1.008 1.296-2.17 2.311-3.564 3.173ZM22.21 23.508l2.296 3.976c1.394-.862 2.556-1.877 3.564-3.173l-2.296-3.977c-1.008 1.297-2.17 2.311-3.564 3.174Z"></path>
        <path stroke="#597398" d="m4.45 20.94-.014.009-.008.005-.008.005-.013.007-.14.09a12.414 12.414 0 0 0-3.19 2.865l6.569 11.377c.972-1.168 2.085-2.105 3.39-2.908l.009-.005.008-.005c1.418-.799 2.893-1.392 4.41-1.907l.006-.002a143.201 143.201 0 0 1 2.29-.718h.001c.687-.212 1.37-.422 2.048-.64l.15-.05.01-.002.006-.002.04-.014.21-.073c1.336-.462 2.614-.983 3.835-1.654l.165-.09.013-.008.008-.005.009-.005.013-.008.145-.092a12.411 12.411 0 0 0 3.19-2.865l-6.57-11.377c-.966 1.162-2.072 2.096-3.37 2.896l-.007.005-.009.004c-1.42.804-2.9 1.399-4.419 1.916l-.006.002c-.766.25-1.536.486-2.3.722h-.002c-.686.211-1.37.421-2.049.64l-.12.04-.006.001-.005.002-.051.016-.233.081c-1.337.463-2.615.984-3.836 1.655l-.168.092Z"></path>
        <path fill="currentColor" d="m15.61 21.415 2.296 3.977c1.496-.51 2.94-1.09 4.318-1.867l-2.296-3.976c-1.38.777-2.822 1.357-4.318 1.866Z"></path>
        <path fill="currentColor" d="m8.792 18.913 2.296 3.976c1.518-.494 3.052-.937 4.57-1.43l-2.296-3.977c-1.518.494-3.052.937-4.57 1.43ZM13.383 26.629l2.296 3.976c1.518-.494 3.052-.936 4.57-1.43l-2.296-3.977c-1.517.494-3.051.937-4.57 1.43Z"></path>
        <path fill="currentColor" d="M6.849 24.622 9.145 28.6c1.379-.777 2.822-1.358 4.318-1.867l-2.296-3.976c-1.497.51-2.94 1.09-4.318 1.866Z"></path>
        <path fill="currentColor" d="M1.104 23.881 3.4 27.858c1.008-1.297 2.169-2.31 3.564-3.174l-2.296-3.976c-1.395.863-2.556 1.877-3.564 3.173ZM5.6 31.525l2.295 3.977c1.008-1.296 2.169-2.31 3.564-3.173l-2.296-3.977c-1.395.863-2.556 1.877-3.564 3.173Z"></path>
        <rect width="1.993" height="48.006" fill="currentColor" rx=".996" transform="scale(-1 1) rotate(30 -34.156 -33.718)"></rect>
    </g>
</svg>