<svg xmlns="http://www.w3.org/2000/svg"
     viewBox="0 0 64 64">
    <path d="M32.321 28.364a12.252 12.252 0 0 0 4.544 1.422c.372.04.747.06 1.113.06 1.3 0 2.49-.253 3.442-.731 1.042-.514 1.788-1.37 1.997-2.29l.001-.004c.226-.922.006-1.98-.619-2.981-1.137-1.79-3.258-3.242-5.816-3.98a11.581 11.581 0 0 0-3.171-.462c-.647 0-1.273.063-1.862.187-1.28.268-2.328.836-2.95 1.6l-.004.004a3.014 3.014 0 0 0-.7 1.719 3.884 3.884 0 0 1 4.163 2.631c.171.382.247.77.225 1.155.001.13-.017.253-.038.376a3.875 3.875 0 0 1-.325 1.294m5.944 3.407c-1.247 0-2.497-.172-3.714-.51a14.525 14.525 0 0 1-3.454-1.371 3.9 3.9 0 0 1-2.328.773 3.897 3.897 0 0 1-3.893-3.892 3.9 3.9 0 0 1 1.137-2.745c-.128-.64-.143-1.212-.046-1.744.208-1.09.752-2.022 1.574-2.698 1.015-.879 2.515-1.478 4.222-1.689.501-.06 1.016-.09 1.53-.09 1.397 0 2.79.214 4.141.634a14.63 14.63 0 0 1 3.94 1.783c1.214.79 2.22 1.72 2.987 2.766 1.288 1.777 1.375 3.272 1.22 4.217-.141 1.256-.973 2.477-2.226 3.269-.98.63-2.242 1.051-3.645 1.217-.473.053-.959.08-1.445.08m-7.91-17.891c-.524 0-1.051.017-1.566.052-2.158.149-5.267.695-7.82 2.46-1.82 1.237-3.088 3.04-3.482 4.947-.384 1.76-.099 3.71.824 5.645.726 1.519 1.804 2.98 3.205 4.345 1.914 1.86 4.37 3.474 7.102 4.67 3.338 1.447 6.926 2.24 10.374 2.295l.32.002c2.169 0 5.313-.314 8.12-1.79a3.532 3.532 0 0 1-.223-1.233 3.607 3.607 0 0 1 3.602-3.604c.357 0 .712.055 1.06.163a7.7 7.7 0 0 0 .304-4.192c-.451-2.305-1.828-4.638-3.982-6.749-2.15-2.101-4.95-3.867-8.097-5.106-3.186-1.247-6.555-1.905-9.74-1.905m9.06 26.632c-2.05 0-4.146-.24-6.232-.715a30.016 30.016 0 0 1-9.09-3.579c-2.79-1.678-5.042-3.664-6.694-5.902-1.454-1.97-2.33-3.993-2.601-6.012-.284-2.067.102-4.05 1.116-5.736 1.027-1.836 2.876-3.427 5.208-4.48C23.54 12.983 26.51 12.4 29.71 12.4h.1c3.671.007 7.437.775 11.195 2.282 3.136 1.288 5.86 2.978 8.099 5.023 2.334 2.13 3.984 4.535 4.772 6.953.732 2.257.692 4.583-.11 6.572.425.61.65 1.312.65 2.042a3.607 3.607 0 0 1-3.605 3.603c-.67 0-1.32-.186-1.888-.537a16.193 16.193 0 0 1-3.17 1.31c-1.96.573-4.092.863-6.336.863m-4.204 2.3c2.059 0 4.022.771 5.529 2.172a8.111 8.111 0 0 1 2.543 5.012c.273-.028.547-.067.814-.104l.444-.06c4.937-.717 9.332-2.562 12.376-5.195 1.922-1.645 3.365-3.651 4.174-5.802 1.023-2.67 1.122-5.681.289-8.71-.731-2.675-2.14-5.303-4.19-7.812a31.415 31.415 0 0 0-4.888-4.752 2.399 2.399 0 0 1-1.351.417c-1.352 0-2.45-1.1-2.45-2.451 0-.196.026-.393.08-.597-3.598-2.214-7.589-3.91-11.863-5.042-3.67-.974-7.369-1.468-10.993-1.468-1.101 0-2.204.047-3.276.14-3.492.302-6.813 1.13-9.624 2.397.055.26.082.521.082.78a3.862 3.862 0 0 1-3.857 3.856 3.81 3.81 0 0 1-2.09-.62 15.379 15.379 0 0 0-1.432 1.71 13.12 13.12 0 0 0-2.506 7.278c-.087 2.55.523 5.175 1.814 7.803 1.464 2.972 3.685 5.77 6.602 8.313 4.388 3.81 9.923 6.723 16.02 8.434a8.207 8.207 0 0 1 2.783-3.999 8.035 8.035 0 0 1 4.97-1.7m0 16.265c-1.69 0-3.31-.515-4.685-1.49a8.13 8.13 0 0 1-2.923-3.793c-.388-.788-.576-1.599-.56-2.412a.624.624 0 0 1-.003-.095c-6.1-1.62-11.776-4.401-16.417-8.045-2.68-2.11-4.92-4.444-6.657-6.935-2.784-3.983-4.15-8.203-3.949-12.202.137-2.946 1.167-5.776 2.978-8.183L3 15.92a19.017 19.017 0 0 1 2.502-2.682 3.802 3.802 0 0 1-.308-1.5 3.862 3.862 0 0 1 3.858-3.858c1.168 0 2.275.536 3.006 1.444 2.863-1.138 6.055-1.858 9.492-2.143a41.93 41.93 0 0 1 3.416-.139c3.912 0 7.89.528 11.825 1.57 3.44.934 6.609 2.133 9.42 3.563.907.452 1.838.966 2.988 1.653a2.426 2.426 0 0 1 1.754-.75c1.351 0 2.45 1.099 2.45 2.45 0 .355-.08.709-.236 1.037 2.199 1.7 4.115 3.55 5.698 5.5 1.984 2.454 3.418 5.023 4.262 7.637.482 1.529.767 3.05.846 4.523a14.707 14.707 0 0 1-.452 4.57c-.581 2.24-1.736 4.388-3.34 6.209-1.296 1.482-2.897 2.794-4.758 3.897-3.385 2.021-7.628 3.337-12.272 3.806a8.14 8.14 0 0 1-7.938 6.37"></path>
</svg>