<svg xmlns="http://www.w3.org/2000/svg"
     viewBox="0 0 64 64">
    <path d="M44.964 44.342c.03 3.655.235 7.82-.803 10.46-.817.022-2.54.323-2.98-.17-.704-.727-.075-2.866-.86-3.695l-.172.17-.057-.227c.285-.606.512-.822.172-1.592l-.516.114c-.143.789.103 1.584-.057 2.387l-.917 4.434c-.149.67-.075 1.874-.516 2.274-.6.616-2.676.342-3.84.342-2.825 0-6.213.534-8.655-.342l-1.146-6.423c-.245-1.234.183-2.083-.287-2.786l-.802.057c.04 1.87.085 4.553-.917 5.457-3.474.084-3.293-.196-3.21-3.638l-.344-.057v-.057l.172-1.194-.229-1.25c.101-.909.405-3.136.115-4.207l4.527-.057v1.99c.12.134.176.107.23.34l.172-.056c.855-1.31.032-2.897.344-4.662.091-.52.599-1.188.515-1.364l-.114-.341-.63-.057c-.02-1.194-.04-2.388-.058-3.581-.42.053-1.596.217-1.891-.057-.344-.793-.34-2.114-.344-3.127h-.459v-.17l.287-.057v-.967c-.284-.046-.171.038-.287-.17h.459l-.058-8.698-.63-1.08.057-3.639c-.23-2.382-.282-6.498.459-8.357.516-1.297-.553-4.12.286-5.059.373-.176 2.085-.35 2.35-.114l.63.967 1.491.057.057 4.49c.385.013.505.073.63.342.173.647-.2.752-.286 1.307l-.057 3.07.057 8.186.516.91c.085.327.338 3.506 0 3.638l.573 1.137h.459v-.455c.57-.035.908-.15 1.318.057l-.057.569.343.057.516-1.308.516-.057-.172-.057c1.085-.09 2.136-.029 2.923.285l.287 1.137h.401c-.021-.36-.041-.6.172-.74l.802-.113c.26.184.336.167.344.625h.459c.77-1.607.13-2.696.516-4.661.093-.473.448-.636.573-.967.188-.498-.166-1.163-.172-1.421l.23-.91V15.35c0-1.29.186-3.033-.345-3.809l.23-.852h.4c-.012-1.605-.321-3.14.058-4.548 1.58.105 1.472-.389 2.235-1.137.896-.022 1.658.092 2.293.34-.006 2.006.071 4.624.573 5.913v6.48l.057 4.72-.573.738-.057 4.832c-.497 2.615.459 6.175-.401 8.641h-1.777l-.23 3.582h-.458c-.066.297-.155.313-.286.512.385.093.593.324.573.852.443 1.749-.294 3.624.344 4.946h.229c.066-.186.079-.154.172-.284l.057-1.933h4.47Z" clip-rule="evenodd"></path>
</svg>