<svg xmlns="http://www.w3.org/2000/svg"
     viewBox="0 0 64 64">
    <path d="M29.9 31.43a7.8 7.8 0 0 0-7.85 7.84 7.8 7.8 0 0 0 7.85 7.85 7.8 7.8 0 0 0 7.84-7.85 7.8 7.8 0 0 0-7.84-7.84Z"></path>
    <path d="M56.76 37.73c-1.22-3.1-5.1-5.98-4.87-9.7a1.65 1.65 0 0 0 1.61-1.46l.94-9.25c.02-.15 0-.3-.02-.44.1-.58-.08-1.2-.54-1.62l-6.24-5.62a2.05 2.05 0 0 0-2.4-.17c-.03-2.7-.6-5.26-4.15-5.47H18.5a4.12 4.12 0 0 0-4.11 4.11V55.3H6.9c-.5 0-.91.4-.91.9v3.33c0 .5.4.9.9.9H52.7c.5 0 .91-.4.91-.9v-3.32c0-.5-.4-.91-.9-.91H45.2V36.17c2.86 1.58 2.02 9.1 2.11 11.52 0 0 .23 4.99 3.58 5.56 4.37.77 5.35-.2 6.2-1.9 1.42-2.8 1.06-10.09-.34-13.62ZM17.69 9.71c0-.9.74-1.64 1.64-1.64h20.88c.9 0 1.64.74 1.64 1.64v9.59c0 .9-.75 1.64-1.64 1.64H19.34c-.9 0-1.64-.73-1.64-1.64V9.7Zm21.05 29.56a8.83 8.83 0 0 1-8.84 8.85 8.83 8.83 0 0 1-8.85-8.85 8.83 8.83 0 0 1 8.85-8.84 8.83 8.83 0 0 1 8.84 8.84Zm15.5 11.11c-.98 1.23-4.04.28-4.22-2.54-.17-2.52-.13-6.93-.99-10.87a5.14 5.14 0 0 0-3.82-3.94V15.02c.26.92 1.04 1.67 3.24 4.3L47.9 26c0 .75.49 1.42 1.17 1.7-.27 4.09 5 8.37 5.45 11.58.37 1.84 1.56 8.6-.28 11.11Z"></path>
    <path d="M39.66 11.87H20.13a1.17 1.17 0 0 1 0-2.34h19.53a1.17 1.17 0 0 1 0 2.34Z"></path>
</svg>