<svg xmlns="http://www.w3.org/2000/svg"
     viewBox="0 0 128 128">
    <path d="M98.621 94.663c0-.55-.457-1.008-1.02-1.008-.059 0-.106 0-.164.011a74.357 74.357 0 0 1-11.693.927c-11.365 0-20.935-2.756-25.614-7.377-2.627-2.592-3.648-5.653-2.944-8.831.997-4.539 5.489-8.996 12.361-12.49l-13.944 4.609c-.552 4.245-1.994 7.951-4.105 10.344-1.232 1.419-3.401 2.709-6.157 3.682 2.615 2.44 4.597 5.806 5.91 10.04a.901.901 0 0 1-.574 1.114l-12.127 4.01a.788.788 0 0 1-.281.048 1 1 0 0 1-.41-.094.903.903 0 0 1-.447-.528c-.738-2.38-1.724-4.504-2.92-6.298-2.228-3.307-4.773-4.844-6.368-5.524-.246-.058-.481-.105-.715-.164l-5.56-1.478a17.476 17.476 0 0 0-4.433-.575c-1.184 0-2.357.13-3.507.364-5.98 3.577-9.405 7.858-9.57 11.963v16.724c.059 2.099.997 4.152 2.885 6.016.27.27.563.528.868.774.094.083.2.153.294.235.21.176.434.34.668.504.117.082.246.176.364.258l.703.458c.13.082.247.152.376.234.281.164.574.329.88.481.093.047.175.106.28.153.4.199.81.398 1.232.586.106.047.211.082.305.129.328.141.657.281 1.009.41.152.059.316.118.469.176.305.118.61.223.926.329.164.058.34.117.516.164.329.106.669.211 1.009.305.152.047.305.094.47.129.492.141.996.27 1.512.387.516.117 1.044.235 1.583.34.165.035.34.059.505.094.375.07.75.141 1.137.199.2.035.399.059.598.094.376.059.751.106 1.126.153l.598.07 1.314.141c.14.011.293.035.434.047.586.047 1.173.093 1.77.129.141 0 .294.011.435.023.457.024.915.047 1.384.059.21 0 .422 0 .633.011.41 0 .82.012 1.231.024h.61c.75 0 1.513-.012 2.276-.047.093 0 .187 0 .281-.012.692-.023 1.396-.07 2.1-.117.175 0 .34-.023.515-.035a77.554 77.554 0 0 0 2.299-.211c.153-.012.293-.036.446-.047.68-.082 1.372-.164 2.052-.258.153-.024.305-.035.446-.059.774-.117 1.548-.234 2.322-.375.176-.035.34-.059.516-.094.715-.129 1.42-.27 2.134-.422.094-.024.188-.035.282-.059.774-.176 1.548-.363 2.322-.551.176-.047.352-.094.54-.141.774-.211 1.56-.422 2.322-.657L97.4 109.593a1.9 1.9 0 0 0 1.314-1.806v-.551a2.929 2.929 0 0 1-.082-.633V94.687l-.012-.024ZM66.557 100.2c-1.56.469-3.378.317-4.046-.352-.68-.668.046-1.595 1.606-2.064 1.56-.47 3.378-.317 4.046.352.68.668-.046 1.595-1.606 2.064ZM68.01 96c-1.56.47-3.378.317-4.046-.352-.669-.668.047-1.594 1.607-2.064 1.56-.469 3.377-.316 4.046.352.668.669-.047 1.595-1.607 2.064Zm6.228 1.713c-1.56.469-3.378.316-4.047-.352-.668-.669.047-1.595 1.607-2.064 1.56-.47 3.378-.317 4.046.352.669.668-.047 1.594-1.606 2.064Zm53.749-24.535v16.29c.024 1.607-.457 3.237-1.395 4.843-.704 1.208-1.666 2.405-2.874 3.566-3.612 3.483-9.394 6.661-16.876 8.925l-4.832 1.595a2.27 2.27 0 0 1-.54.094c-.094 0-.176 0-.27-.012-.047 0-.082 0-.129-.012a1.455 1.455 0 0 1-.387-.117c-.011 0-.023-.012-.035-.023a1.378 1.378 0 0 1-.316-.176c-.036-.024-.071-.059-.106-.082-.07-.059-.141-.118-.199-.188a.8.8 0 0 1-.094-.117 2.393 2.393 0 0 1-.153-.212l-.07-.14a6.275 6.275 0 0 1-.106-.27c-.011-.047-.035-.082-.046-.129a1.757 1.757 0 0 1-.047-.434V94.663c0-.14-.012-.281-.047-.41 0-.047-.024-.082-.036-.13-.023-.081-.047-.175-.082-.245a1.26 1.26 0 0 0-.07-.13 1.161 1.161 0 0 0-.129-.199c-.035-.047-.07-.082-.106-.117-.047-.047-.082-.094-.129-.14 0 0-.011-.013-.023-.024a1.238 1.238 0 0 0-.13-.106c-.058-.047-.116-.082-.187-.129-.047-.023-.093-.058-.14-.082a1.556 1.556 0 0 0-.212-.082c-.046-.023-.105-.035-.164-.047a.738.738 0 0 0-.223-.035c-.058 0-.105-.012-.164-.012h-.07c-.082 0-.164 0-.258.024h-.047c-.962.152-1.912.281-2.873.398-.329.035-.657.059-.986.094-.621.07-1.254.14-1.876.188-.387.035-.774.047-1.161.07-.563.035-1.126.082-1.677.094l-1.208.035c-.528.012-1.067.035-1.595.035h-.188c-.739 0-1.466-.011-2.193-.035-.176 0-.352-.011-.528-.023a47.109 47.109 0 0 1-1.865-.106c-.246-.012-.48-.035-.715-.059l-.457-.035c.082 0 .152 0 .234.012h-.105l-1.513-.14c-.153-.012-.317-.036-.47-.048-.75-.093-1.477-.199-2.204-.316-.188-.035-.364-.059-.54-.094a67.16 67.16 0 0 1-1.63-.305c-.211-.047-.422-.094-.645-.14a59.598 59.598 0 0 1-1.689-.411c-.117-.035-.234-.059-.34-.082a39.675 39.675 0 0 1-1.888-.575l-.493-.176a35.375 35.375 0 0 1-1.337-.504l-.528-.211a24.527 24.527 0 0 1-1.477-.68c-.059-.024-.118-.047-.165-.083a25.913 25.913 0 0 1-1.489-.844 20.668 20.668 0 0 1-.399-.258c-.352-.223-.68-.457-.997-.692-.129-.094-.246-.188-.375-.282-.41-.328-.797-.656-1.161-1.008a12.468 12.468 0 0 1-1.126-1.29c-3.213-4.27-1.888-9.265 2.98-13.699 3.048-2.78 7.482-5.336 13.052-7.365.082-.035.165-.058.258-.094l2.135-.703c1.114 1.067 2.604 1.97 4.421 2.674.047.023.106.035.153.047.047.023.105.035.152.047 1.736.645 3.718 1.114 5.923 1.383 1.525.188 3.155.294 4.867.294 2.592 0 5.23-.258 7.799-.716.047 0 .094-.023.153-.023.047 0 .094-.024.152-.024v3.472c0 .047-.012.082-.023.129-.118 1.794-2.346 3.6-5.782 4.644a20.098 20.098 0 0 1-5.712.833c-2.944 0-5.559-.68-6.849-1.959-.469-.457-.739-.973-.797-1.524V68.17c-1.326.797-2.31 1.689-2.909 2.615-6.345 3.155-8.737 7.658-5.266 11.083 4.246 4.199 15.645 5.196 25.462 2.228 9.816-2.967 14.331-8.772 10.074-12.97-1.22-1.209-3.131-2.182-5.336-2.839a3.585 3.585 0 0 0-.387-.47 6.584 6.584 0 0 0-1.196-.914 45.31 45.31 0 0 0 3.412-.856h.059l.106-.035 4.667-1.373a6.335 6.335 0 0 0 3.531-2.638s.058-.094.093-.141c.036 0 .071.012.094.023 2.686.751 5.078 1.724 7.072 2.92 1.196.716 2.24 1.502 3.12 2.37.234.234.457.469.668.715.411.481.774.974 1.068 1.466.152.246.281.505.398.75.235.505.423 1.021.54 1.537.117.516.199 1.044.211 1.572l-.012-.035Zm-30.692 3.588c3.976-1.196 6.826-3.19 7.67-5.277.047-.13.117-.258.153-.387 0-.035.035-.07.035-.106.058-.211.058-.422.07-.633h.035v5.078c-.211 2.463-3.26 4.867-7.975 6.298a27.646 27.646 0 0 1-7.858 1.15c-4.046 0-7.635-.939-9.406-2.686-.715-.704-1.09-1.49-1.114-2.334v-4.785h.024c.023.2.07.398.129.586a3.81 3.81 0 0 0 .973 1.572c1.771 1.747 5.36 2.685 9.406 2.685 2.557 0 5.29-.375 7.858-1.149v-.012Zm2.58-25.649c.141-1.76.235-3.413.293-4.973.141 0 .294 0 .434.024.211.012.434.035.645.059.165.023.34.046.505.07.211.035.422.082.633.129.164.035.328.07.492.117.212.059.423.13.622.188.153.058.317.105.469.164.211.082.411.176.61.258.153.07.293.129.446.2.211.105.41.222.61.34.129.082.269.152.398.234.223.14.423.293.634.446.105.082.211.152.316.234.305.247.61.505.892.786l5.324 5.207c1.771 1.736 2.041 4.21 1.138 6.181-.129.282-.27.54-.446.797 0 0-.047.083-.082.118a5.341 5.341 0 0 1-2.885 2.04l-4.668 1.373h-.07c-.927.281-1.865.516-2.803.727-.211.047-.434.094-.645.14-.399.083-.798.141-1.185.212l-.223.035c-.058 0-.105.023-.164.035-.058 0-.105.023-.164.035-.352.059-.704.14-1.055.188-.118.012-.235.023-.352.047-.856.117-1.7.21-2.557.27-.2.011-.399.035-.61.046-.446.036-.891.036-1.337.047-.457.012-.926.047-1.384.047h-.164c-.47 0-.938 0-1.407-.023-.106 0-.2 0-.305-.012a64.697 64.697 0 0 1-1.595-.094h-.153a34.117 34.117 0 0 1-1.618-.187c-.106-.012-.223-.036-.329-.047a52.208 52.208 0 0 1-1.536-.258c-.07-.012-.14-.035-.211-.047-.47-.094-.915-.2-1.36-.317-.071-.023-.141-.035-.2-.047-.47-.129-.915-.27-1.349-.41-.094-.035-.176-.059-.27-.094-.152-.059-.304-.106-.457-.164-.047-.024-.094-.035-.152-.059-.047-.023-.094-.035-.153-.059-.164-.07-.34-.129-.492-.21-.035-.012-.07-.036-.106-.048a18.205 18.205 0 0 1-1.067-.54c-.059-.034-.13-.07-.2-.105-.34-.199-.668-.41-.973-.633l-.176-.14c-.152-.118-.293-.224-.434-.353h.024l-.258-.222c-.059-.047-.13-.094-.176-.153-.106-.105-.2-.223-.294-.328a6.272 6.272 0 0 1-.738-.974 4.995 4.995 0 0 1-.563-1.36 4.7 4.7 0 0 1-.118-1.407c.024-.235.06-.47.106-.716.164-.715.48-1.43.938-2.134.305-.47.68-.939 1.126-1.396.434-.457.938-.915 1.501-1.349.235-.187.481-.363.74-.551l-.036.223v.223c.035.774.375 1.5.997 2.11 1.278 1.256 3.706 1.983 6.661 1.983 1.783 0 3.6-.27 5.278-.774 3.436-1.044 5.348-2.78 5.676-5.16l.012.011ZM70.661 15.57c.247.235.552.54.868.892.317.352.669.75.997 1.196.27.363.54.75.786 1.161.117.188.223.375.329.563.234.434.457.891.633 1.372.2.551.293 1.09.316 1.654.024.551 0 1.114-.07 1.689-.047.375-.094.762-.152 1.149-.212 1.548-.434 3.143-.012 4.89.14.587.352 1.185.668 1.807.13.27.282.527.446.797.504.81 1.138 1.619 1.794 2.475 1.795 2.31 3.847 4.973 4.774 8.937.281 1.184.445 2.498.48 3.94.024.856-.023 1.771-.105 2.745 0 .117-.012.234-.023.351-.024.223-.059.446-.094.669-.047.34-.082.68-.141 1.032v.047c0 .27.07.54.2.786.128.246.293.492.527.715 1.138 1.126 3.436 1.724 6.028 1.724 1.63 0 3.378-.234 5.02-.739 3.073-.926 4.762-2.416 5.043-4.433.117-1.419.2-2.768.258-4.058.012-.27.023-.528.023-.786 0-.304.024-.598.036-.89v-.2c.035-1.232.035-2.393.023-3.495 0-.551-.023-1.091-.035-1.619-.094-2.615-.317-4.879-.633-6.814a40.6 40.6 0 0 0-.41-2.181c-.517-2.38-1.162-4.187-1.807-5.536a14.486 14.486 0 0 0-.551-1.055c-.903-1.584-1.724-2.322-2.088-2.604.164-.211.293-.434.41-.669.106-.234.2-.48.247-.727l1.29-5.735a3.24 3.24 0 0 0 .082-.89l-.14-5.302A3.605 3.605 0 0 0 94 5.471l-4.574-2.885a3.561 3.561 0 0 0-1.712-.55V2H85.838c-.188 0-.4.012-.61.023h-.176c-.282.012-.575.036-.892.06-.07 0-.152.01-.234.023l-.739.07c-.117.012-.234.035-.364.047-.222.023-.457.058-.691.094-.141.023-.27.047-.41.058-.235.035-.47.082-.716.13-.141.023-.27.046-.41.081-.27.059-.552.118-.822.188-.105.023-.223.047-.328.082-.387.094-.774.2-1.161.329a3.79 3.79 0 0 0-.2.07c-.316.105-.633.211-.938.328-.129.047-.258.106-.387.153-.246.105-.504.21-.739.316-.14.06-.281.13-.41.2-.235.117-.458.234-.692.363-.13.07-.27.153-.399.235-.234.14-.457.293-.68.457-.106.082-.223.153-.329.235-.316.246-.633.492-.914.774a9.056 9.056 0 0 0-2.498 4.07c-.27.938-.41 1.935-.41 3.014a2.966 2.966 0 0 0 .95 2.17h.023Zm4.187-3.542 1.255-4.14a1.879 1.879 0 0 1 1.302-1.278l9.582-2.803a1.925 1.925 0 0 1 1.56.223l4.574 2.885c.54.34.88.927.891 1.572l.14 5.3c0 .153 0 .317-.046.47l-1.29 5.735a1.929 1.929 0 0 1-1.337 1.419l-4.117 1.208a2.072 2.072 0 0 1-.54.082c-.34 0-.68-.094-.973-.27l-7.6-4.503a1.828 1.828 0 0 1-.598-.563l-2.544-3.671a1.885 1.885 0 0 1-.259-1.654v-.011Zm1.736.927c0-1.466 1.22-2.65 2.721-2.65 1.501 0 2.721 1.184 2.721 2.65s-1.22 2.65-2.72 2.65c-1.502 0-2.722-1.184-2.722-2.65Zm4.34-4.691a.935.935 0 0 1-.094-.845.924.924 0 0 1 .621-.574l3.495-1.02a.927.927 0 0 1 .728.081.905.905 0 0 1 .445.587l1.595 6.204a.932.932 0 0 1-.645 1.138l-1.384.398a.96.96 0 0 1-1.056-.387l-3.705-5.594v.012Zm-37.448 81.17L35.29 92.13c-1.408-2.064-2.932-3.46-4.293-4.421.434.023.868.046 1.302.046 2.053 0 4.07-.316 6.005-.938l5.172-1.665v4.28Zm-8.022 2.955 3.213-1.067 4.891-1.619c1.325 1.806 2.357 3.824 3.167 6.17l-8.374 2.767c-.74-2.357-1.712-4.456-2.897-6.263v.012ZM6.978 66.352l9.805-2.498c3.483-.927 6.345-2.756 7.951-5.055.2-.293.423-.575.669-.844.48-.54 1.032-1.056 1.642-1.525.61-.47 1.29-.903 2.029-1.29a17.776 17.776 0 0 1 3.624-1.408l13.252-3.495c.188 0 .376.012.563.024.141 0 .282.012.423.035.152.024.305.07.445.106.141.035.282.07.41.117.153.047.294.117.435.188.129.058.27.117.398.187.141.082.282.176.423.27.129.082.258.164.387.258.14.106.27.223.399.34.117.106.246.2.363.317.13.129.258.27.387.41.117.13.235.247.34.376.13.152.235.316.364.469.105.14.223.281.316.434.118.164.223.352.34.527.094.165.2.317.294.481.105.188.2.387.305.587.093.175.187.352.27.527.093.212.187.434.28.645.083.188.165.376.236.575.082.223.164.47.246.704.07.2.14.399.21.61.083.246.142.516.212.774l.176.621c.07.27.117.563.176.845.047.21.094.41.129.621.059.294.094.61.14.915.036.211.07.41.094.622.047.351.07.715.106 1.079.012.176.035.34.047.504.035.54.059 1.09.07 1.642a29.122 29.122 0 0 1-.223 4.093c-.023.223-.058.446-.093.657a25.419 25.419 0 0 1-.927 4.034c-.129.41-.281.821-.434 1.208-.668 1.677-1.501 3.108-2.463 4.199-.14.164-.305.328-.469.492-.528.493-1.196.986-2.017 1.455-1.032.598-2.299 1.15-3.788 1.642-.094.035-.188.07-.282.093l-.551.176-.352.118L38 85.938c-.446.14-.891.27-1.349.375-.152.035-.305.059-.457.094-.305.07-.61.129-.915.176-.176.035-.364.047-.54.07-.281.035-.562.07-.832.094l-.587.035-.809.035h-.246c-.153 0-.305 0-.458-.011-.175 0-.34 0-.516-.012-.258-.012-.504-.035-.762-.059-.164-.012-.328-.023-.48-.047-.282-.035-.552-.082-.833-.129-.07 0-.13-.023-.2-.035a6.707 6.707 0 0 1-.2-.035c-.14-.024-.28-.07-.421-.094-.258-.059-.528-.105-.786-.176l-1.396-.375-.422-.117-3.741-.997c-.399-.106-.81-.2-1.208-.27-.141-.023-.27-.047-.41-.07-.27-.047-.552-.094-.822-.13-.164-.023-.328-.035-.492-.046-.258-.024-.505-.047-.763-.059-.175 0-.351-.012-.516-.012-.152 0-.305-.011-.445-.011h-.247c-.27 0-.54.011-.809.035h-.293c-.094 0-.188.011-.293.023-.282.024-.563.059-.845.094-.14.023-.281.023-.422.047a.414.414 0 0 0-.117.023c-.305.047-.61.118-.915.176-.152.035-.305.059-.446.094-.457.106-.903.235-1.348.375l-2.592.833c1.677-1.994 2.72-5.371 2.662-9.23-.082-5.043-2.076-9.148-4.773-10.32l.023.07ZM4.433 86.747a2.69 2.69 0 0 1-.27-.117c-.082-.036-.164-.07-.246-.118a1.93 1.93 0 0 1-.258-.164 2.66 2.66 0 0 1-.234-.152c-.082-.059-.165-.141-.247-.211a3.39 3.39 0 0 1-.223-.2 2.452 2.452 0 0 1-.234-.258c-.07-.07-.14-.152-.211-.234-.082-.094-.153-.2-.223-.294a2.077 2.077 0 0 1-.188-.258 8.57 8.57 0 0 1-.21-.34c-.06-.093-.118-.187-.177-.293-.07-.117-.129-.246-.2-.375-.058-.106-.105-.211-.163-.317-.059-.129-.118-.27-.176-.41-.047-.118-.094-.223-.14-.34-.06-.141-.106-.305-.165-.458-.035-.117-.082-.234-.117-.352l-.141-.492C.575 81.246.54 81.118.504 81c-.047-.176-.082-.352-.117-.528-.023-.129-.059-.246-.082-.387-.035-.187-.059-.387-.094-.574-.023-.13-.035-.247-.059-.364l-.07-.68c0-.106-.023-.2-.035-.305A27.177 27.177 0 0 1 0 77.142c0-.692.012-1.373.082-2.018.13-1.313.387-2.533.762-3.612.634-1.83 1.584-3.249 2.71-4.01.281-.188.563-.33.867-.423.27-.094.552-.152.845-.164h.129c.07 0 .152.011.223.023a.96.96 0 0 1 .258.024c.094.011.187.047.281.07.082.023.164.035.247.07.093.036.187.082.281.118.082.035.164.07.246.117.094.047.176.105.27.164.082.047.152.094.235.153.093.07.176.14.258.21.07.06.14.118.21.188.083.082.165.176.247.258.07.07.14.141.2.223.081.094.152.2.234.305.059.082.129.164.188.247.082.117.152.234.222.351.06.094.118.176.165.282.07.129.14.258.199.398.047.106.106.2.152.294.07.14.13.293.188.434.047.105.094.21.13.316.058.153.105.305.163.47.035.117.082.222.118.351l.14.493c.036.117.07.234.106.364.047.175.082.363.117.539.024.117.059.235.082.364.035.187.059.398.094.598.024.117.035.234.059.352.023.222.047.445.07.68 0 .105.024.2.035.305.024.328.035.668.047 1.02.035 2.076-.281 4.011-.832 5.641a12.74 12.74 0 0 1-.634 1.513c-.48.927-1.044 1.677-1.689 2.217-.316.27-.656.48-1.008.621-.176.07-.364.13-.552.176-.058.012-.117.012-.187.024a1.81 1.81 0 0 1-.364.047c-.117 0-.234 0-.352-.024-.058 0-.129 0-.187-.012h-.07c-.094-.011-.188-.046-.282-.07l-.258-.07-.012-.012Z"></path>
</svg>