<svg xmlns="http://www.w3.org/2000/svg"
     viewBox="0 0 64 64">
    <path d="M33 4v4.02C45.46 8.532 55.47 18.54 55.98 31H60v2h-4.02C55.468 45.46 45.46 55.469 33 55.98V60h-2v-4.02C18.54 55.469 8.532 45.46 8.02 33H4v-2h4.02C8.531 18.54 18.54 8.531 31 8.02V4h2ZM17.033 33h-5.09C12.448 43.295 20.706 51.553 31 52.057v-5.09c-7.488-.493-13.475-6.479-13.968-13.966Zm35.024 0h-5.09c-.493 7.488-6.48 13.474-13.966 13.967v5.09C43.294 51.552 51.551 43.295 52.056 33ZM33.001 19.107 33 23h-2v-3.893c-6.344.485-11.408 5.549-11.893 11.893H23v2h-3.893c.486 6.345 5.55 11.408 11.893 11.893V41h2v3.893c6.344-.486 11.407-5.549 11.893-11.892L41 33v-2h3.893c-.485-6.344-5.548-11.407-11.892-11.893ZM32 28a4 4 0 1 1 0 8 4 4 0 0 1 0-8Zm-20.057 3h5.09c.493-7.487 6.48-13.474 13.967-13.967v-5.09C20.706 12.447 12.448 20.705 11.944 31ZM33 11.944v5.09c7.488.493 13.474 6.48 13.967 13.967h5.09C51.553 20.707 43.295 12.449 33 11.944Z"></path>
</svg>