<svg xmlns="http://www.w3.org/2000/svg"
     viewBox="0 0 64 64">
    <path d="M9 46v8a1 1 0 0 0 1 1h8v3h-8a4 4 0 0 1-4-4v-8h3Zm49 0v8a4 4 0 0 1-4 4h-8v-3h8a1 1 0 0 0 1-1v-8h3Zm-26-1v4h-5v-4h5Zm5.661-30c.537.218 1.092.398 1.608.66C41.762 16.924 42.946 19.223 43 22c.045 2.315.038 4.685 0 7-.07 4.246-2.83 6.97-7 7-1.318.01-2.583 0-4 0v5h-5V31h.439c2.54.01 7.057.084 7.561 0 1.208-.2 2.977-.759 3-2 .044-2.355.053-4.645 0-7-.028-1.25-1.77-2.966-3-3a97.544 97.544 0 0 0-6 0c-1.25.036-2.894 1.623-3 3-.054.704 0 1.236 0 2h-5v-3.723c.849-2.65 2.55-4.43 5.163-5.277H37.66ZM18 6v3h-8a1 1 0 0 0-1 1v8H6v-8a4 4 0 0 1 4-4h8Zm36 0a4 4 0 0 1 4 4v8h-3v-8a1 1 0 0 0-1-1h-8V6Z"></path>
</svg>