<svg xmlns="http://www.w3.org/2000/svg"
     viewBox="0 0 64 64">
    <path d="M6.55 10.21a6.92 6.92 0 0 1 5.7-4.18l.03-.03H51.1a6.86 6.86 0 0 1 6.59 4.85c.2.65.31 1.34.31 2.05v38.2a6.86 6.86 0 0 1-4.85 6.59c-.65.2-1.34.31-2.05.31H12.9a6.86 6.86 0 0 1-6.59-4.85A6.88 6.88 0 0 1 6 51.1V12.9c0-.95.2-1.86.54-2.69Zm2.49 40.9a3.82 3.82 0 0 0 1.7 3.2 3.88 3.88 0 0 0 2.16.66h38.2a3.82 3.82 0 0 0 3.2-1.71 3.84 3.84 0 0 0 .67-2.16V12.9a3.82 3.82 0 0 0-1.71-3.2 3.88 3.88 0 0 0-2.16-.67H12.9a3.83 3.83 0 0 0-3.2 1.71 3.88 3.88 0 0 0-.67 2.16v38.2Z"></path>
    <path d="M16.02 26.33h9.1c.66 0 1.2-.55 1.2-1.22v-9.09c0-.67.55-1.21 1.22-1.21h8.92c.67 0 1.21.54 1.21 1.21v9.1c0 .66.55 1.2 1.22 1.2h9.09c.67 0 1.21.55 1.21 1.22v8.92c0 .67-.54 1.21-1.21 1.21h-9.09c-.67 0-1.21.55-1.21 1.22v9.09c0 .67-.55 1.21-1.22 1.21h-8.92c-.67 0-1.21-.54-1.21-1.21v-9.1c0-.66-.55-1.2-1.22-1.2h-9.09c-.67 0-1.21-.55-1.21-1.22v-8.92c0-.67.54-1.22 1.21-1.22Z"></path>
</svg>