<svg xmlns="http://www.w3.org/2000/svg" aria-hidden="true" style="width: 0; height: 0; position: absolute;"><symbol id="icon-far-award" viewBox="0 0 384 512"><!--!Font Awesome Pro 6.6.0 by @fontawesome - https://fontawesome.com License - https://fontawesome.com/license (Commercial License) Copyright 2024 Fonticons, Inc.--><path d="M163.1 8.1c17.7-10.8 40-10.8 57.8 0l15.6 9.5c1.2.7 2.7 1.1 4.1 1.1l18.3-.4c20.8-.5 40.1 10.7 50 28.9l8.8 16.1q1.05 1.95 3 3l16.1 8.7c18.2 10 29.4 29.3 28.9 50l-.4 18.3c0 1.4.3 2.9 1.1 4.1l9.5 15.6c10.8 17.7 10.8 40 0 57.8l-9.5 15.6c-.7 1.2-1.1 2.7-1.1 4.1l.4 18.3c.5 20.8-10.7 40.1-28.9 50l-16.1 8.8q-1.95 1.05-3 3l-8.7 16.2c-10 18.2-29.3 29.4-50 28.9l-18.3-.4c-1.4 0-2.9.3-4.1 1.1l-15.6 9.5c-17.7 10.8-40 10.8-57.8 0l-15.6-9.5c-1.2-.7-2.7-1.1-4.1-1.1l-18.3.4c-20.8.5-40.1-10.7-50-28.9l-8.8-16.1q-1.05-1.95-3-3L47.2 309c-18.2-10-29.4-29.3-28.9-50l.4-18.3c0-1.4-.3-2.9-1.1-4.1l-9.5-15.7c-10.8-17.7-10.8-40 0-57.8l9.5-15.6c.7-1.2 1.1-2.7 1.1-4.1l-.4-18.3C17.8 104.3 29 85 47.2 75l16.1-8.8q1.95-1.05 3-3l8.7-16c10-18.2 29.3-29.4 50-28.9l18.3.4c1.4 0 2.9-.3 4.1-1.1L163 8.1zm32.8 41c-2.4-1.5-5.4-1.5-7.8 0l-15.6 9.5c-9.1 5.5-19.6 8.3-30.2 8.1l-18.3-.4c-2.8-.1-5.4 1.4-6.8 3.9l-8.8 16.1c-5.1 9.3-12.8 17-22.1 22.1l-16.1 8.8c-2.5 1.4-4 4-3.9 6.8l.4 18.3c.3 10.6-2.6 21.1-8.1 30.2l-9.5 15.6-20.5-12.5 20.5 12.5c-1.5 2.4-1.5 5.4 0 7.8l9.5 15.6c5.5 9.1 8.3 19.6 8.1 30.2l-.4 18.3c-.1 2.8 1.4 5.4 3.9 6.8l16.1 8.8c9.3 5.1 17 12.8 22.1 22.1l8.8 16.1c1.4 2.5 4 4 6.8 3.9l18.3-.4c10.6-.3 21.1 2.6 30.2 8.1l15.6 9.5c2.4 1.5 5.4 1.5 7.8 0l15.6-9.5c9.1-5.5 19.6-8.3 30.2-8.1l18.3.4c2.8.1 5.4-1.4 6.8-3.9l8.8-16.1c5.1-9.3 12.8-17 22.1-22.1l16.1-8.8c2.5-1.4 4-4 3.9-6.8l-.4-18.3c-.3-10.6 2.6-21.1 8.1-30.2l9.5-15.6c1.5-2.4 1.5-5.4 0-7.8l-9.5-15.6c-5.5-9.1-8.3-19.6-8.1-30.2l.4-18.3c.1-2.8-1.4-5.4-3.9-6.8l-16.1-8.8c-9.3-5.1-17-12.8-22.1-22.1l-8.8-16.1c-1.4-2.5-4-4-6.8-3.9l-18.3.4c-10.6.3-21.1-2.6-30.2-8.1zM128 192a64 64 0 1 1 128 0 64 64 0 1 1-128 0M1.3 441.8l41.2-97.9 4.5 8.2c15.7 28.7 46.1 46.3 78.9 45.5l11.1-.3 9.5 5.8c8 4.9 16.7 8.4 25.6 10.5l-37.3 88.5c-2.3 5.5-7.4 9.2-13.3 9.7s-11.6-2.2-14.8-7.2l-32.3-49.1-56.1 8.3c-5.7.8-11.4-1.5-15-6s-4.3-10.7-2.1-16zm248 60.4L212 413.7c8.9-2.1 17.5-5.6 25.5-10.5l9.5-5.8 11.1.3c32.7.8 63.2-16.8 78.9-45.5l4.5-8.2 41.2 97.9c2.2 5.3 1.4 11.4-2.1 16s-9.3 6.9-15 6l-56.1-8.3-32.2 49.2c-3.2 5-8.9 7.7-14.8 7.2s-11-4.3-13.3-9.7z"></path></symbol><symbol id="icon-far-baby" viewBox="0 0 448 512"><!--!Font Awesome Pro 6.6.0 by @fontawesome - https://fontawesome.com License - https://fontawesome.com/license (Commercial License) Copyright 2024 Fonticons, Inc.--><path d="M224 112a32 32 0 1 0 0-64 32 32 0 1 0 0 64m0-112a80 80 0 1 1 0 160 80 80 0 1 1 0-160M107.3 180.7c-6.2-6.2-16.4-6.2-22.6 0s-6.2 16.4 0 22.6l18.7 18.7c12.8 12.8 27.5 23.4 43.4 31.5 8.1 4.1 13.1 12.4 13.1 21.4v13h128v-13c0-9 5.1-17.3 13.1-21.4 15.9-8.1 30.6-18.6 43.4-31.5l18.7-18.7c6.2-6.2 6.2-16.4 0-22.6s-16.4-6.2-22.6 0l-18.7 18.7c-26 26-61.2 40.6-97.9 40.6s-72-14.6-97.9-40.6zm197.3 160.8-24.1 21.1 23.5 30.3c6.8 8.8 6.7 21.1-.2 29.7L291.5 438c-5.5 6.9-4.4 17 2.5 22.5s17 4.4 22.5-2.5l32-40c4.6-5.8 4.7-14 .1-19.8l-44.1-56.7zm-137 21.1-24.1-21.1-44.1 56.7c-4.5 5.8-4.5 14 .1 19.8l32 40c5.5 6.9 15.6 8 22.5 2.5s8-15.6 2.5-22.5l-12.3-15.4c-6.9-8.7-7-21-.2-29.7zM50.7 146.7c25-25 65.5-25 90.5 0l18.8 18.8c17 17 40 26.5 64 26.5s47-9.5 64-26.5l18.7-18.7c25-25 65.5-25 90.5 0s25 65.5 0 90.5L378.5 256c-12.9 12.9-27.2 23.9-42.5 33.1v14.6l50.5 65c18.2 23.4 18 56.2-.5 79.3l-32 40c-22.1 27.6-62.4 32.1-90 10s-32.1-62.4-10-90l.5-.6-5.8-7.4h-49.4l-5.8 7.4.5.6c22.1 27.6 17.6 67.9-10 90s-67.9 17.6-90-10l-32-40c-18.5-23.1-18.7-55.9-.5-79.3l50.5-65v-14.6c-15.4-9.2-29.7-20.3-42.5-33.1l-18.8-18.7c-25-25-25-65.5 0-90.5z"></path></symbol><symbol id="icon-far-gear" viewBox="0 0 512 512"><!--!Font Awesome Pro 6.6.0 by @fontawesome - https://fontawesome.com License - https://fontawesome.com/license (Commercial License) Copyright 2024 Fonticons, Inc.--><path d="M256 0c17 0 33.6 1.7 49.8 4.8 7.9 1.5 21.8 6.1 29.4 20.1 2 3.7 3.6 7.6 4.6 11.8l9.3 38.5c1.4 5.8 11.2 11.5 16.9 9.8l38-11.2c4-1.2 8.1-1.8 12.2-1.9 16.1-.5 27 9.4 32.3 15.4 22.1 25.1 39.1 54.6 49.9 86.3 2.6 7.6 5.6 21.8-2.7 35.4-2.2 3.6-4.9 7-8 10L459 246.3c-4.2 4-4.2 15.5 0 19.5l28.7 27.3c3.1 3 5.8 6.4 8 10 8.2 13.6 5.2 27.8 2.7 35.4-10.8 31.7-27.8 61.1-49.9 86.3-5.3 6-16.3 15.9-32.3 15.4-4.1-.1-8.2-.8-12.2-1.9L366 427c-5.7-1.7-15.5 4-16.9 9.8l-9.3 38.5c-1 4.2-2.6 8.2-4.6 11.8-7.7 14-21.6 18.5-29.4 20.1-16.2 3.1-32.8 4.8-49.8 4.8s-33.6-1.7-49.8-4.8c-7.9-1.5-21.8-6.1-29.4-20.1-2-3.7-3.6-7.6-4.6-11.8l-9.3-38.5c-1.4-5.8-11.2-11.5-16.9-9.8l-38 11.2c-4 1.2-8.1 1.8-12.2 1.9-16.1.5-27-9.4-32.3-15.4-22-25.1-39.1-54.6-49.9-86.3-2.6-7.6-5.6-21.8 2.7-35.4 2.2-3.6 4.9-7 8-10L53 265.7c4.2-4 4.2-15.5 0-19.5l-28.8-27.3c-3.1-3-5.8-6.4-8-10-8.2-13.6-5.2-27.8-2.6-35.3 10.8-31.7 27.8-61.1 49.9-86.3 5.3-6 16.3-15.9 32.3-15.4 4.1.1 8.2.8 12.2 1.9L146 85c5.7 1.7 15.5-4 16.9-9.8l9.3-38.5c1-4.2 2.6-8.2 4.6-11.8 7.7-14 21.6-18.5 29.4-20.1C222.4 1.7 239 0 256 0m-37.9 51.4-8.5 35.1c-7.8 32.3-45.3 53.9-77.2 44.6l-34.5-10.2c-16.5 19.3-29.5 41.7-38 65.7l26.2 24.9c24 22.8 24 66.2 0 89l-26.2 24.9c8.5 24 21.5 46.4 38 65.7l34.6-10.2c31.8-9.4 69.4 12.3 77.2 44.6l8.5 35.1c24.6 4.5 51.3 4.5 75.9 0l8.5-35.1c7.8-32.3 45.3-53.9 77.2-44.6l34.6 10.2c16.5-19.3 29.5-41.7 38-65.7l-26.2-24.9c-24-22.8-24-66.2 0-89l26.2-24.9c-8.5-24-21.5-46.4-38-65.7l-34.6 10.2c-31.8 9.4-69.4-12.3-77.2-44.6l-8.5-35.1c-24.6-4.5-51.3-4.5-75.9 0zM208 256a48 48 0 1 0 96 0 48 48 0 1 0-96 0m48 96a96 96 0 1 1 0-192 96 96 0 1 1 0 192"></path></symbol><symbol id="icon-far-graduation-cap" viewBox="0 0 640 512"><!--!Font Awesome Pro 6.6.0 by @fontawesome - https://fontawesome.com License - https://fontawesome.com/license (Commercial License) Copyright 2024 Fonticons, Inc.--><path d="M320 80c2.5 0 5 .4 7.4 1.3l218 78.7-218 78.7c-2.4.9-4.9 1.3-7.4 1.3s-5-.4-7.4-1.3l-127.7-46.1 140.8-52.8c8.3-3.1 12.5-12.3 9.4-20.6s-12.3-12.5-20.6-9.4l-159.6 59.8q-7.8 3-15.3 6.6L94.7 160l218-78.7c2.4-.9 4.9-1.3 7.4-1.3zM15.8 182.6l77.4 27.9C66 239.2 49.5 277.2 48.1 318.2c-.1.6-.1 1.2-.1 1.8 0 28.4-10.8 57.8-22.3 80.8-6.5 13-13.9 25.8-22.5 37.6-3.2 4.3-4.1 9.9-2.3 15s6 8.9 11.2 10.2l64 16c4.2 1.1 8.7.3 12.4-2s6.3-6.1 7.1-10.4c8.6-42.8 4.3-81.2-2.1-108.7-3.2-14-7.5-28.3-13.4-41.5 1.9-37 19.2-70.9 46.7-94.2L296.3 284c7.6 2.7 15.6 4.1 23.7 4.1s16.1-1.4 23.7-4.1l280.5-101.4c9.5-3.4 15.8-12.5 15.8-22.6s-6.3-19.1-15.8-22.6L343.7 36.1c-7.6-2.7-15.6-4.1-23.7-4.1s-16.1 1.4-23.7 4.1L15.8 137.4C6.3 140.9 0 149.9 0 160s6.3 19.1 15.8 22.6m480.8 80-46.5 16.8 12.7 120.5c-4.8 3.5-12.8 8-24.6 12.6C410 423.6 368 432 320 432s-90-8.4-118.3-19.4c-11.8-4.6-19.8-9.2-24.6-12.6l12.7-120.5-46.5-16.8L128 408c0 35.3 86 72 192 72s192-36.7 192-72l-15.3-145.4zM467.4 396s-.1.1-.3.4c.2-.3.3-.4.3-.4m-294.8 0"></path></symbol><symbol id="icon-far-moon" viewBox="0 0 384 512"><!--!Font Awesome Free 6.6.0 by @fontawesome - https://fontawesome.com License - https://fontawesome.com/license/free Copyright 2024 Fonticons, Inc.--><path d="M144.7 98.7c-21 34.1-33.1 74.3-33.1 117.3 0 98 62.8 181.4 150.4 211.7-12.4 2.8-25.3 4.3-38.6 4.3C126.6 432 48 353.3 48 256c0-68.9 39.4-128.4 96.8-157.3zm62.1-66C91.1 41.2 0 137.9 0 256c0 123.7 100 224 223.5 224 47.8 0 92-15 128.4-40.6 1.9-1.3 3.7-2.7 5.5-4 4.8-3.6 9.4-7.4 13.9-11.4 2.7-2.4 5.3-4.8 7.9-7.3 5-4.9 6.3-12.5 3.1-18.7s-10.1-9.7-17-8.5c-3.7.6-7.4 1.2-11.1 1.6-5 .5-10.1.9-15.3 1h-4c-96.8-.2-175.2-78.9-175.2-176 0-54.8 24.9-103.7 64.1-136 1-.9 2.1-1.7 3.2-2.6 4-3.2 8.2-6.2 12.5-9 3.1-2 6.3-4 9.6-5.8 6.1-3.5 9.2-10.5 7.7-17.3s-7.3-11.9-14.3-12.5c-3.6-.3-7.1-.5-10.7-.6-2.7-.1-5.5-.1-8.2-.1-3.3 0-6.5.1-9.8.2-2.3.1-4.6.2-6.9.4z"></path></symbol><symbol id="icon-far-pen-to-square" viewBox="0 0 512 512"><!--!Font Awesome Free 6.6.0 by @fontawesome - https://fontawesome.com License - https://fontawesome.com/license/free Copyright 2024 Fonticons, Inc.--><path d="M441 58.9 453.1 71c9.4 9.4 9.4 24.6 0 33.9L424 134.1 377.9 88 407 58.9c9.4-9.4 24.6-9.4 33.9 0zM209.8 256.2 344 121.9l46.1 46.1-134.3 134.2c-2.9 2.9-6.5 5-10.4 6.1L186.9 325l16.7-58.5c1.1-3.9 3.2-7.5 6.1-10.4zM373.1 25 175.8 222.2c-8.7 8.7-15 19.4-18.3 31.1l-28.6 100c-2.4 8.4-.1 17.4 6.1 23.6s15.2 8.5 23.6 6.1l100-28.6c11.8-3.4 22.5-9.7 31.1-18.3L487 138.9c28.1-28.1 28.1-73.7 0-101.8L474.9 25c-28.1-28.1-73.7-28.1-101.8 0M88 64c-48.6 0-88 39.4-88 88v272c0 48.6 39.4 88 88 88h272c48.6 0 88-39.4 88-88V312c0-13.3-10.7-24-24-24s-24 10.7-24 24v112c0 22.1-17.9 40-40 40H88c-22.1 0-40-17.9-40-40V152c0-22.1 17.9-40 40-40h112c13.3 0 24-10.7 24-24s-10.7-24-24-24z"></path></symbol><symbol id="icon-far-sun" viewBox="0 0 512 512"><!--!Font Awesome Free 6.6.0 by @fontawesome - https://fontawesome.com License - https://fontawesome.com/license/free Copyright 2024 Fonticons, Inc.--><path d="M375.7 19.7c-1.5-8-6.9-14.7-14.4-17.8s-16.1-2.2-22.8 2.4L256 61.1 173.5 4.2c-6.7-4.6-15.3-5.5-22.8-2.4s-12.9 9.8-14.4 17.8l-18.1 98.5-98.5 18.2c-8 1.5-14.7 6.9-17.8 14.4s-2.2 16.1 2.4 22.8L61.1 256 4.2 338.5c-4.6 6.7-5.5 15.3-2.4 22.8s9.8 13 17.8 14.4l98.5 18.1 18.1 98.5c1.5 8 6.9 14.7 14.4 17.8s16.1 2.2 22.8-2.4l82.6-56.8 82.5 56.9c6.7 4.6 15.3 5.5 22.8 2.4s12.9-9.8 14.4-17.8l18.1-98.5 98.5-18.1c8-1.5 14.7-6.9 17.8-14.4s2.2-16.1-2.4-22.8L450.9 256l56.9-82.5c4.6-6.7 5.5-15.3 2.4-22.8s-9.8-12.9-17.8-14.4l-98.5-18.1zM269.6 110l65.6-45.2 14.4 78.3c1.8 9.8 9.5 17.5 19.3 19.3l78.3 14.4-45.2 65.6c-5.7 8.2-5.7 19 0 27.2l45.2 65.6-78.3 14.4c-9.8 1.8-17.5 9.5-19.3 19.3l-14.4 78.3-65.6-45.2c-8.2-5.7-19-5.7-27.2 0l-65.6 45.2-14.4-78.3c-1.8-9.8-9.5-17.5-19.3-19.3l-78.3-14.4 45.2-65.6c5.7-8.2 5.7-19 0-27.2l-45.2-65.6 78.3-14.4c9.8-1.8 17.5-9.5 19.3-19.3l14.4-78.3 65.6 45.2c8.2 5.7 19 5.7 27.2 0M256 368a112 112 0 1 0 0-224 112 112 0 1 0 0 224m-64-112a64 64 0 1 1 128 0 64 64 0 1 1-128 0"></path></symbol><symbol id="icon-far-trash-can" viewBox="0 0 448 512"><!--!Font Awesome Free 6.6.0 by @fontawesome - https://fontawesome.com License - https://fontawesome.com/license/free Copyright 2024 Fonticons, Inc.--><path d="m170.5 51.6-19 28.4h145l-19-28.4c-1.5-2.2-4-3.6-6.7-3.6h-93.7c-2.7 0-5.2 1.3-6.7 3.6zm147-26.6 36.7 55H424c13.3 0 24 10.7 24 24s-10.7 24-24 24h-8v304c0 44.2-35.8 80-80 80H112c-44.2 0-80-35.8-80-80V128h-8c-13.3 0-24-10.7-24-24s10.7-24 24-24h69.8l36.7-55.1C140.9 9.4 158.4 0 177.1 0h93.7c18.7 0 36.2 9.4 46.6 24.9zM80 128v304c0 17.7 14.3 32 32 32h224c17.7 0 32-14.3 32-32V128zm80 64v208c0 8.8-7.2 16-16 16s-16-7.2-16-16V192c0-8.8 7.2-16 16-16s16 7.2 16 16m80 0v208c0 8.8-7.2 16-16 16s-16-7.2-16-16V192c0-8.8 7.2-16 16-16s16 7.2 16 16m80 0v208c0 8.8-7.2 16-16 16s-16-7.2-16-16V192c0-8.8 7.2-16 16-16s16 7.2 16 16"></path></symbol><symbol id="icon-fas-award" viewBox="0 0 384 512"><!--!Font Awesome Free 6.6.0 by @fontawesome - https://fontawesome.com License - https://fontawesome.com/license/free Copyright 2024 Fonticons, Inc.--><path d="M173.8 5.5c11-7.3 25.4-7.3 36.4 0L228 17.2c6 3.9 13 5.8 20.1 5.4l21.3-1.3c13.2-.8 25.6 6.4 31.5 18.2l9.6 19.1c3.2 6.4 8.4 11.5 14.7 14.7l19.3 9.7c11.8 5.9 19 18.3 18.2 31.5l-1.3 21.3c-.4 7.1 1.5 14.2 5.4 20.1l11.8 17.8c7.3 11 7.3 25.4 0 36.4L366.8 228c-3.9 6-5.8 13-5.4 20.1l1.3 21.3c.8 13.2-6.4 25.6-18.2 31.5l-19.1 9.6c-6.4 3.2-11.5 8.4-14.7 14.7l-9.7 19.3c-5.9 11.8-18.3 19-31.5 18.2l-21.3-1.3c-7.1-.4-14.2 1.5-20.1 5.4l-17.8 11.8c-11 7.3-25.4 7.3-36.4 0L156 366.8c-6-3.9-13-5.8-20.1-5.4l-21.3 1.3c-13.2.8-25.6-6.4-31.5-18.2l-9.6-19.1c-3.2-6.4-8.4-11.5-14.7-14.7L39.5 301c-11.8-5.9-19-18.3-18.2-31.5l1.3-21.3c.4-7.1-1.5-14.2-5.4-20.1L5.5 210.2c-7.3-11-7.3-25.4 0-36.4L17.2 156c3.9-6 5.8-13 5.4-20.1l-1.3-21.3c-.8-13.2 6.4-25.6 18.2-31.5l19.1-9.6C65 70.2 70.2 65 73.4 58.6L83 39.5c5.9-11.8 18.3-19 31.5-18.2l21.3 1.3c7.1.4 14.2-1.5 20.1-5.4zM272 192a80 80 0 1 0-160 0 80 80 0 1 0 160 0M1.3 441.8l43.1-102.5c.2.1.3.2.4.4l9.6 19.1c11.7 23.2 36 37.3 62 35.8l21.3-1.3c.2 0 .5 0 .7.2l17.8 11.8c5.1 3.3 10.5 5.9 16.1 7.7l-37.6 89.3c-2.3 5.5-7.4 9.2-13.3 9.7s-11.6-2.2-14.8-7.2l-32.2-49.3-56.1 8.3c-5.7.8-11.4-1.5-15-6s-4.3-10.7-2.1-16zm248 60.4L211.7 413c5.6-1.8 11-4.3 16.1-7.7l17.8-11.8c.2-.1.4-.2.7-.2l21.3 1.3c26 1.5 50.3-12.6 62-35.8l9.6-19.1c.1-.2.2-.3.4-.4l43.2 102.5c2.2 5.3 1.4 11.4-2.1 16s-9.3 6.9-15 6l-56.1-8.3-32.2 49.2c-3.2 5-8.9 7.7-14.8 7.2s-11-4.3-13.3-9.7"></path></symbol><symbol id="icon-fas-baby" viewBox="0 0 448 512"><!--!Font Awesome Free 6.6.0 by @fontawesome - https://fontawesome.com License - https://fontawesome.com/license/free Copyright 2024 Fonticons, Inc.--><path d="M152 88a72 72 0 1 1 144 0 72 72 0 1 1-144 0M39.7 144.5c13-17.9 38-21.8 55.9-8.8l36.2 26.3c26.8 19.5 59.1 30 92.2 30s65.4-10.5 92.2-30l36.2-26.4c17.9-13 42.9-9 55.9 8.8s9 42.9-8.8 55.9l-36.2 26.4c-13.6 9.9-28.1 18.2-43.3 25V288H128v-36.3c-15.2-6.7-29.7-15.1-43.3-25l-36.2-26.4c-17.9-13-21.8-38-8.8-55.9zm89.8 184.8 60.6 53-26 37.2 24.3 24.3c15.6 15.6 15.6 40.9 0 56.6s-40.9 15.6-56.6 0l-48-48C70 438.6 68.1 417 79.2 401.1l50.2-71.8zm128.5 53 60.6-53 50.2 71.8c11.1 15.9 9.2 37.5-4.5 51.2l-48 48c-15.6 15.6-40.9 15.6-56.6 0s-15.6-40.9 0-56.6l24.3-24.3-26-37.2z"></path></symbol><symbol id="icon-fas-gear" viewBox="0 0 512 512"><!--!Font Awesome Free 6.6.0 by @fontawesome - https://fontawesome.com License - https://fontawesome.com/license/free Copyright 2024 Fonticons, Inc.--><path d="M495.9 166.6c3.2 8.7.5 18.4-6.4 24.6l-43.3 39.4c1.1 8.3 1.7 16.8 1.7 25.4s-.6 17.1-1.7 25.4l43.3 39.4c6.9 6.2 9.6 15.9 6.4 24.6-4.4 11.9-9.7 23.3-15.8 34.3l-4.7 8.1c-6.6 11-14 21.4-22.1 31.2-5.9 7.2-15.7 9.6-24.5 6.8l-55.7-17.7c-13.4 10.3-28.2 18.9-44 25.4l-12.5 57.1c-2 9.1-9 16.3-18.2 17.8-13.8 2.3-28 3.5-42.5 3.5s-28.7-1.2-42.5-3.5c-9.2-1.5-16.2-8.7-18.2-17.8l-12.5-57.1c-15.8-6.5-30.6-15.1-44-25.4l-55.6 17.8c-8.8 2.8-18.6.3-24.5-6.8-8.1-9.8-15.5-20.2-22.1-31.2l-4.7-8.1c-6.1-11-11.4-22.4-15.8-34.3-3.2-8.7-.5-18.4 6.4-24.6l43.3-39.4c-1.1-8.4-1.7-16.9-1.7-25.5s.6-17.1 1.7-25.4l-43.3-39.4c-6.9-6.2-9.6-15.9-6.4-24.6 4.4-11.9 9.7-23.3 15.8-34.3l4.7-8.1c6.6-11 14-21.4 22.1-31.2 5.9-7.2 15.7-9.6 24.5-6.8l55.7 17.7c13.4-10.3 28.2-18.9 44-25.4l12.5-57.1c2-9.1 9-16.3 18.2-17.8C227.3 1.2 241.5 0 256 0s28.7 1.2 42.5 3.5c9.2 1.5 16.2 8.7 18.2 17.8l12.5 57.1c15.8 6.5 30.6 15.1 44 25.4l55.7-17.7c8.8-2.8 18.6-.3 24.5 6.8 8.1 9.8 15.5 20.2 22.1 31.2l4.7 8.1c6.1 11 11.4 22.4 15.8 34.3zM256 336a80 80 0 1 0 0-160 80 80 0 1 0 0 160"></path></symbol><symbol id="icon-fas-graduation-cap" viewBox="0 0 640 512"><!--!Font Awesome Free 6.6.0 by @fontawesome - https://fontawesome.com License - https://fontawesome.com/license/free Copyright 2024 Fonticons, Inc.--><path d="M320 32c-8.1 0-16.1 1.4-23.7 4.1L15.8 137.4C6.3 140.9 0 149.9 0 160s6.3 19.1 15.8 22.6l57.9 20.9C57.3 229.3 48 259.8 48 291.9V320c0 28.4-10.8 57.7-22.3 80.8-6.5 13-13.9 25.8-22.5 37.6-3.2 4.3-4.1 9.9-2.3 15s6 8.9 11.2 10.2l64 16c4.2 1.1 8.7.3 12.4-2s6.3-6.1 7.1-10.4c8.6-42.8 4.3-81.2-2.1-108.7-3.2-14.2-7.5-28.7-13.5-42v-24.6c0-30.2 10.2-58.7 27.9-81.5 12.9-15.5 29.6-28 49.2-35.7l157-61.7c8.2-3.2 17.5.8 20.7 9s-.8 17.5-9 20.7l-157 61.7c-12.4 4.9-23.3 12.4-32.2 21.6l159.6 57.6c7.6 2.7 15.6 4.1 23.7 4.1s16.1-1.4 23.7-4.1l280.6-101c9.5-3.4 15.8-12.5 15.8-22.6s-6.3-19.1-15.8-22.6L343.7 36.1c-7.6-2.7-15.6-4.1-23.7-4.1M128 408c0 35.3 86 72 192 72s192-36.7 192-72l-15.3-145.4L354.5 314c-11.1 4-22.8 6-34.5 6s-23.5-2-34.5-6l-142.2-51.4z"></path></symbol><symbol id="icon-fas-moon" viewBox="0 0 384 512"><!--!Font Awesome Free 6.6.0 by @fontawesome - https://fontawesome.com License - https://fontawesome.com/license/free Copyright 2024 Fonticons, Inc.--><path d="M223.5 32C100 32 0 132.3 0 256s100 224 223.5 224c60.6 0 115.5-24.2 155.8-63.4 5-4.9 6.3-12.5 3.1-18.7s-10.1-9.7-17-8.5c-9.8 1.7-19.8 2.6-30.1 2.6-96.9 0-175.5-78.8-175.5-176 0-65.8 36-123.1 89.3-153.3 6.1-3.5 9.2-10.5 7.7-17.3s-7.3-11.9-14.3-12.5c-6.3-.5-12.6-.8-19-.8z"></path></symbol><symbol id="icon-fas-pen-to-square" viewBox="0 0 512 512"><!--!Font Awesome Free 6.6.0 by @fontawesome - https://fontawesome.com License - https://fontawesome.com/license/free Copyright 2024 Fonticons, Inc.--><path d="M471.6 21.7c-21.9-21.9-57.3-21.9-79.2 0l-30.1 30 97.9 97.9 30.1-30.1c21.9-21.9 21.9-57.3 0-79.2zm-299.2 220c-6.1 6.1-10.8 13.6-13.5 21.9l-29.6 88.8c-2.9 8.6-.6 18.1 5.8 24.6s15.9 8.7 24.6 5.8l88.8-29.6c8.2-2.7 15.7-7.4 21.9-13.5l167.3-167.4-98-98zM96 64c-53 0-96 43-96 96v256c0 53 43 96 96 96h256c53 0 96-43 96-96v-96c0-17.7-14.3-32-32-32s-32 14.3-32 32v96c0 17.7-14.3 32-32 32H96c-17.7 0-32-14.3-32-32V160c0-17.7 14.3-32 32-32h96c17.7 0 32-14.3 32-32s-14.3-32-32-32z"></path></symbol><symbol id="icon-fas-sun" viewBox="0 0 512 512"><!--!Font Awesome Free 6.6.0 by @fontawesome - https://fontawesome.com License - https://fontawesome.com/license/free Copyright 2024 Fonticons, Inc.--><path d="M361.5 1.2c5 2.1 8.6 6.6 9.6 11.9L391 121l107.9 19.8c5.3 1 9.8 4.6 11.9 9.6s1.5 10.7-1.6 15.2L446.9 256l62.3 90.3c3.1 4.5 3.7 10.2 1.6 15.2s-6.6 8.6-11.9 9.6L391 391l-19.9 107.9c-1 5.3-4.6 9.8-9.6 11.9s-10.7 1.5-15.2-1.6L256 446.9l-90.3 62.3c-4.5 3.1-10.2 3.7-15.2 1.6s-8.6-6.6-9.6-11.9L121 391 13.1 371.1c-5.3-1-9.8-4.6-11.9-9.6s-1.5-10.7 1.6-15.2L65.1 256 2.8 165.7c-3.1-4.5-3.7-10.2-1.6-15.2s6.6-8.6 11.9-9.6L121 121l19.9-107.9c1-5.3 4.6-9.8 9.6-11.9s10.7-1.5 15.2 1.6L256 65.1l90.3-62.3c4.5-3.1 10.2-3.7 15.2-1.6M160 256a96 96 0 1 1 192 0 96 96 0 1 1-192 0m224 0a128 128 0 1 0-256 0 128 128 0 1 0 256 0"></path></symbol><symbol id="icon-fas-trash-can" viewBox="0 0 448 512"><!--!Font Awesome Free 6.6.0 by @fontawesome - https://fontawesome.com License - https://fontawesome.com/license/free Copyright 2024 Fonticons, Inc.--><path d="M135.2 17.7C140.6 6.8 151.7 0 163.8 0h120.4c12.1 0 23.2 6.8 28.6 17.7L320 32h96c17.7 0 32 14.3 32 32s-14.3 32-32 32H32C14.3 96 0 81.7 0 64s14.3-32 32-32h96zM32 128h384v320c0 35.3-28.7 64-64 64H96c-35.3 0-64-28.7-64-64zm96 64c-8.8 0-16 7.2-16 16v224c0 8.8 7.2 16 16 16s16-7.2 16-16V208c0-8.8-7.2-16-16-16m96 0c-8.8 0-16 7.2-16 16v224c0 8.8 7.2 16 16 16s16-7.2 16-16V208c0-8.8-7.2-16-16-16m96 0c-8.8 0-16 7.2-16 16v224c0 8.8 7.2 16 16 16s16-7.2 16-16V208c0-8.8-7.2-16-16-16"></path></symbol></svg>