<svg xmlns="http://www.w3.org/2000/svg" aria-hidden="true" style="width: 0; height: 0; position: absolute;"><symbol id="icon-child-care" viewBox="0 -960 960 960"><path d="M580-490q-21 0-35.5-14.5T530-540t14.5-35.5T580-590t35.5 14.5T630-540t-14.5 35.5T580-490m-200 0q-21 0-35.5-14.5T330-540t14.5-35.5T380-590t35.5 14.5T430-540t-14.5 35.5T380-490m100 210q-60 0-108.5-33T300-400h360q-23 54-71.5 87T480-280m0 160q-75 0-140.5-28.5t-114-77-77-114T120-480t28.5-140.5 77-114 114-77T480-840t140.5 28.5 114 77 77 114T840-480t-28.5 140.5-77 114-114 77T480-120m0-80q116 0 198-82t82-198-82-198-198-82h-12q-6 0-12 2-6 6-8 13t-2 15q0 21 14.5 35.5T496-680q9 0 16.5-3t15.5-3q12 0 20 9t8 21q0 23-21.5 29.5T496-620q-45 0-77.5-32.5T386-730v-6q0-3 1-8-83 30-135 101t-52 163q0 116 82 198t198 82m0-280"></path></symbol><symbol id="icon-child-friendly" viewBox="0 -960 960 960"><path d="M340-80q-26 0-43-17t-17-43 17-43 43-17 43 17 17 43-17 43-43 17m440 0q-26 0-43-17t-17-43 17-43 43-17 43 17 17 43-17 43-43 17M540-656 384-844q36-18 78-27t90-9q51 0 97.5 14.5T732-824zm-60 416q-83 0-141.5-58.5T280-440v-308l-20-24q-14-17-23.5-22.5T216-800q-24 0-40 18t-16 42H80q0-57 39.5-98.5T216-880q30 0 55 14t51 44l428 516q17 20 6.5 43T720-240zm0-80h154L360-652v212q0 50 35 85t85 35m17-166"></path></symbol><symbol id="icon-close" viewBox="0 -960 960 960"><path d="m256-200-56-56 224-224-224-224 56-56 224 224 224-224 56 56-224 224 224 224-56 56-224-224z"></path></symbol><symbol id="icon-dark-mode" viewBox="0 -960 960 960"><path d="M480-120q-150 0-255-105T120-480t105-255 255-105q14 0 27.5 1t26.5 3q-41 29-65.5 75.5T444-660q0 90 63 153t153 63q55 0 101-24.5t75-65.5q2 13 3 26.5t1 27.5q0 150-105 255T480-120m0-80q88 0 158-48.5T740-375q-20 5-40 8t-40 3q-123 0-209.5-86.5T364-660q0-20 3-40t8-40q-78 32-126.5 102T200-480q0 116 82 198t198 82m-10-270"></path></symbol><symbol id="icon-delete" viewBox="0 -960 960 960"><path d="M280-120q-33 0-56.5-23.5T200-200v-520h-40v-80h200v-40h240v40h200v80h-40v520q0 33-23.5 56.5T680-120zm400-600H280v520h400zM360-280h80v-360h-80zm160 0h80v-360h-80zM280-720v520z"></path></symbol><symbol id="icon-download" viewBox="0 -960 960 960"><path d="M480-320 280-520l56-58 104 104v-326h80v326l104-104 56 58zM240-160q-33 0-56.5-23.5T160-240v-120h80v120h480v-120h80v120q0 33-23.5 56.5T720-160z"></path></symbol><symbol id="icon-edit" viewBox="0 -960 960 960"><path d="M200-200h57l391-391-57-57-391 391zm-80 80v-170l528-527q12-11 26.5-17t30.5-6 31 6 26 18l55 56q12 11 17.5 26t5.5 30q0 16-5.5 30.5T817-647L290-120zm640-584-56-56zm-141 85-28-29 57 57z"></path></symbol><symbol id="icon-light-mode" viewBox="0 -960 960 960"><path d="M480-360q50 0 85-35t35-85-35-85-85-35-85 35-35 85 35 85 85 35m0 80q-83 0-141.5-58.5T280-480t58.5-141.5T480-680t141.5 58.5T680-480t-58.5 141.5T480-280M200-440H40v-80h160zm720 0H760v-80h160zM440-760v-160h80v160zm0 720v-160h80v160zM256-650l-101-97 57-59 96 100zm492 496-97-101 53-55 101 97zm-98-550 97-101 59 57-100 96zM154-212l101-97 55 53-97 101zm326-268"></path></symbol><symbol id="icon-save" viewBox="0 -960 960 960"><path d="M840-680v480q0 33-23.5 56.5T760-120H200q-33 0-56.5-23.5T120-200v-560q0-33 23.5-56.5T200-840h480zm-80 34L646-760H200v560h560zM480-240q50 0 85-35t35-85-35-85-85-35-85 35-35 85 35 85 85 35M240-560h360v-160H240zm-40-86v446-560z"></path></symbol><symbol id="icon-school" viewBox="0 -960 960 960"><path d="M480-120 200-272v-240L40-600l440-240 440 240v320h-80v-276l-80 44v240zm0-332 274-148-274-148-274 148zm0 241 200-108v-151L480-360 280-470v151zm0-151"></path></symbol><symbol id="icon-settings" viewBox="0 -960 960 960"><path d="m370-80-16-128q-13-5-24.5-12T307-235l-119 50L78-375l103-78q-1-7-1-13.5v-27q0-6.5 1-13.5L78-585l110-190 119 50q11-8 23-15t24-12l16-128h220l16 128q13 5 24.5 12t22.5 15l119-50 110 190-103 78q1 7 1 13.5v27q0 6.5-2 13.5l103 78-110 190-118-50q-11 8-23 15t-24 12L590-80zm70-80h79l14-106q31-8 57.5-23.5T639-327l99 41 39-68-86-65q5-14 7-29.5t2-31.5-2-31.5-7-29.5l86-65-39-68-99 42q-22-23-48.5-38.5T533-694l-13-106h-79l-14 106q-31 8-57.5 23.5T321-633l-99-41-39 68 86 64q-5 15-7 30t-2 32q0 16 2 31t7 30l-86 65 39 68 99-42q22 23 48.5 38.5T427-266zm42-180q58 0 99-41t41-99-41-99-99-41q-59 0-99.5 41T342-480t40.5 99 99.5 41m-2-140"></path></symbol><symbol id="icon-upload" viewBox="0 -960 960 960"><path d="M440-320v-326L336-542l-56-58 200-200 200 200-56 58-104-104v326zM240-160q-33 0-56.5-23.5T160-240v-120h80v120h480v-120h80v120q0 33-23.5 56.5T720-160z"></path></symbol></svg>