<svg xmlns="http://www.w3.org/2000/svg" aria-hidden="true" style="width: 0; height: 0; position: absolute;"><symbol id="icon-guiding-beginner-basics" viewBox="0 0 64 64"><path d="M22 31h20V11H22zm10-14 4 6h-8zM0 53h20V33H0zm12-14v8l-6-4zm10 14h20V33H22zm14-12-4 6-4-6zm8-8v20h20V33zm8 14v-8l6 4z"></path></symbol><symbol id="icon-guiding-fps-combat" viewBox="0 0 64 64"><path d="M33 4v4.02C45.46 8.532 55.47 18.54 55.98 31H60v2h-4.02C55.468 45.46 45.46 55.469 33 55.98V60h-2v-4.02C18.54 55.469 8.532 45.46 8.02 33H4v-2h4.02C8.531 18.54 18.54 8.531 31 8.02V4zM17.033 33h-5.09C12.448 43.295 20.706 51.553 31 52.057v-5.09c-7.488-.493-13.475-6.479-13.968-13.966Zm35.024 0h-5.09c-.493 7.488-6.48 13.474-13.966 13.967v5.09c10.293-.505 18.55-8.762 19.055-19.057ZM33.001 19.107 33 23h-2v-3.893c-6.344.485-11.408 5.549-11.893 11.893H23v2h-3.893c.486 6.345 5.55 11.408 11.893 11.893V41h2v3.893c6.344-.486 11.407-5.549 11.893-11.892L41 33v-2h3.893c-.485-6.344-5.548-11.407-11.892-11.893M32 28a4 4 0 1 1 0 8 4 4 0 0 1 0-8m-20.057 3h5.09c.493-7.487 6.48-13.474 13.967-13.967v-5.09C20.706 12.447 12.448 20.705 11.944 31ZM33 11.944v5.09c7.488.493 13.474 6.48 13.967 13.967h5.09C51.553 20.707 43.295 12.449 33 11.944"></path></symbol><symbol id="icon-guiding-medical" viewBox="0 0 64 64"><path d="M6.55 10.21a6.92 6.92 0 0 1 5.7-4.18l.03-.03H51.1a6.86 6.86 0 0 1 6.59 4.85c.2.65.31 1.34.31 2.05v38.2a6.86 6.86 0 0 1-4.85 6.59c-.65.2-1.34.31-2.05.31H12.9a6.86 6.86 0 0 1-6.59-4.85A6.9 6.9 0 0 1 6 51.1V12.9c0-.95.2-1.86.54-2.69Zm2.49 40.9a3.82 3.82 0 0 0 1.7 3.2 3.9 3.9 0 0 0 2.16.66h38.2a3.82 3.82 0 0 0 3.2-1.71 3.84 3.84 0 0 0 .67-2.16V12.9a3.82 3.82 0 0 0-1.71-3.2 3.9 3.9 0 0 0-2.16-.67H12.9a3.83 3.83 0 0 0-3.2 1.71 3.9 3.9 0 0 0-.67 2.16v38.2Z"></path><path d="M16.02 26.33h9.1c.66 0 1.2-.55 1.2-1.22v-9.09c0-.67.55-1.21 1.22-1.21h8.92c.67 0 1.21.54 1.21 1.21v9.1c0 .66.55 1.2 1.22 1.2h9.09c.67 0 1.21.55 1.21 1.22v8.92c0 .67-.54 1.21-1.21 1.21h-9.09c-.67 0-1.21.55-1.21 1.22v9.09c0 .67-.55 1.21-1.22 1.21h-8.92c-.67 0-1.21-.54-1.21-1.21v-9.1c0-.66-.55-1.2-1.22-1.2h-9.09c-.67 0-1.21-.55-1.21-1.22v-8.92c0-.67.54-1.22 1.21-1.22Z"></path></symbol><symbol id="icon-guiding-mining" viewBox="0 0 64 64"><path d="m39.57 16.336 3.048 8.333-4.818 4.774.436 23.066 1.063 1.328-3.07 3.125-.89-.445L28.7 26.77zM13.917 23.12l13.117 4.007 6.423 29.479-1.394.356-5.125-2.405zm25.69 8.816 8.873 6.68-2.693 16.743-5.698-3.384zm18.534 1.247-5.746 16.743-4.176 3.652 2.16-14.695zm-40.962 3.652 5.652 13.877-5.712 1.619L6.105 39.15l11.074-2.316ZM12.817 25.75l1.393 3.425 2.076 5.91L5.631 37.28l-.12-3.235 7.306-8.294Zm36.47-2.123L58.4 30.92l-8.87 6.27-9.388-7.836 9.145-5.726ZM25.804 7l12.79 7.252-10.37 10.417L25.805 7Zm-1.905.623 2.407 17.046-12.445-3.776z"></path></symbol><symbol id="icon-guiding-misc" viewBox="0 0 64 64"><path d="M9 46v8a1 1 0 0 0 1 1h8v3h-8a4 4 0 0 1-4-4v-8zm49 0v8a4 4 0 0 1-4 4h-8v-3h8a1 1 0 0 0 1-1v-8zm-26-1v4h-5v-4zm5.661-30c.537.218 1.092.398 1.608.66C41.762 16.924 42.946 19.223 43 22c.045 2.315.038 4.685 0 7-.07 4.246-2.83 6.97-7 7-1.318.01-2.583 0-4 0v5h-5V31h.439c2.54.01 7.057.084 7.561 0 1.208-.2 2.977-.759 3-2 .044-2.355.053-4.645 0-7-.028-1.25-1.77-2.966-3-3a98 98 0 0 0-6 0c-1.25.036-2.894 1.623-3 3-.054.704 0 1.236 0 2h-5v-3.723c.849-2.65 2.55-4.43 5.163-5.277H37.66ZM18 6v3h-8a1 1 0 0 0-1 1v8H6v-8a4 4 0 0 1 4-4zm36 0a4 4 0 0 1 4 4v8h-3v-8a1 1 0 0 0-1-1h-8V6Z"></path></symbol><symbol id="icon-guiding-missions-reputation" viewBox="0 0 128 128"><path d="M108.306 73.966c-2.288-2.288-6.004-2.288-8.31 0l-36.571 36.572v8.31h8.31l36.571-36.59c2.288-2.288 2.288-6.004 0-8.31zM75.359 128H87.11a7.85 7.85 0 0 0 7.852-7.852v-11.807l-16.95 16.95-2.653 2.691z"></path><path d="M33.626 89.232h38.017l8.493-8.548H33.607V71.46H83.87v5.491l11.056-10.836V40.196H83.87v-8.219H72.906v8.219H44.535v-8.219H33.607v8.219H22.552v79.933a7.85 7.85 0 0 0 7.852 7.853H54.09v-21.251l8.273-8.219H33.626zm0-35.583h50.262v9.28H33.626zM22.35 22.093a.88.88 0 0 0 .33 1.007c.165.11.348.164.53.164a.95.95 0 0 0 .531-.164l6.444-4.686 6.442 4.686c.165.11.348.164.531.164a.95.95 0 0 0 .531-.164c.311-.22.44-.623.33-1.007l-2.471-7.578 6.406-4.667a.92.92 0 0 0 .403-.75.9.9 0 0 0-.897-.898h-7.98L31.007.622A.9.9 0 0 0 30.166 0a.88.88 0 0 0-.842.622L26.854 8.2H18.89a.88.88 0 0 0-.842.623.88.88 0 0 0 .33 1.006l6.442 4.686zm30.422-7.578L50.3 22.093a.88.88 0 0 0 .33 1.007c.164.11.347.164.53.164a.95.95 0 0 0 .53-.164l6.444-4.686 6.443 4.686a.95.95 0 0 0 .53.164.95.95 0 0 0 .531-.164c.312-.22.44-.623.33-1.007l-2.471-7.578 6.406-4.667a.92.92 0 0 0 .403-.75.9.9 0 0 0-.897-.898h-7.98L58.957.622A.9.9 0 0 0 58.116 0a.88.88 0 0 0-.842.622L54.804 8.2H46.84a.885.885 0 0 0-.842.623.88.88 0 0 0 .33 1.006zm27.968 0-2.47 7.578a.88.88 0 0 0 .329 1.007c.164.11.347.164.53.164a.95.95 0 0 0 .531-.164l6.443-4.686 6.443 4.686c.165.11.348.164.531.164a.95.95 0 0 0 .53-.164c.312-.22.44-.623.33-1.007l-2.47-7.578 6.406-4.667a.92.92 0 0 0 .402-.75.9.9 0 0 0-.897-.898h-7.98L86.927.622A.9.9 0 0 0 86.085 0a.88.88 0 0 0-.842.622L82.772 8.2H74.81a.885.885 0 0 0-.842.623.88.88 0 0 0 .33 1.006zm9.665-.348 2.654 8.2-2.673-8.2z"></path></symbol><symbol id="icon-guiding-racing" viewBox="0 0 64 64"><clippath id="a8bc__a"><path fill="#fff" d="M0 0h64v64H0z"></path></clippath><g clip-path="url(#a8bc__a)"><path fill="currentColor" d="m46.465 15.615-2.296 3.976c-1.394-.862-2.556-1.877-3.564-3.173l2.296-3.976c1.008 1.296 2.17 2.31 3.564 3.173m-4.582 7.898-2.296 3.976c-1.394-.862-2.556-1.877-3.564-3.173l2.295-3.976c1.01 1.296 2.17 2.31 3.565 3.173"></path><path stroke="#597398" d="m59.642 20.946.014.008.008.005.009.005.012.007.142.09a12.4 12.4 0 0 1 3.188 2.865l-6.568 11.378c-.972-1.169-2.085-2.106-3.391-2.909l-.008-.005-.008-.004c-1.418-.8-2.894-1.393-4.41-1.908l-.006-.001c-.762-.249-1.527-.484-2.288-.718h-.002l-.001-.001h-.001c-.686-.212-1.368-.421-2.047-.64l-.15-.049-.01-.003-.006-.002-.04-.013-.211-.073c-1.335-.463-2.614-.984-3.835-1.654l-.164-.09-.014-.009-.008-.005-.008-.004-.014-.008-.144-.092a12.4 12.4 0 0 1-3.19-2.866l6.569-11.376c.966 1.162 2.073 2.095 3.37 2.895l.008.005.008.005c1.421.803 2.9 1.398 4.42 1.915l.006.002c.766.25 1.535.487 2.3.722h.002c.686.212 1.369.422 2.048.64l.12.04.007.002.005.001.051.017.233.08c1.336.463 2.614.984 3.836 1.655z"></path><path fill="currentColor" d="m48.483 21.42-2.296 3.977c-1.496-.51-2.94-1.09-4.318-1.867l2.295-3.976c1.38.777 2.822 1.358 4.319 1.867Z"></path><path fill="currentColor" d="m55.3 18.918-2.295 3.977c-1.518-.495-3.052-.938-4.57-1.431l2.295-3.977c1.519.495 3.053.937 4.57 1.431m-4.59 7.716-2.296 3.977c-1.518-.495-3.053-.937-4.57-1.431l2.295-3.977c1.518.495 3.052.938 4.57 1.431Z"></path><path fill="currentColor" d="m57.244 24.628-2.296 3.976c-1.379-.777-2.822-1.358-4.318-1.867l2.295-3.976c1.498.51 2.94 1.09 4.319 1.867"></path><path fill="currentColor" d="m62.989 23.887-2.296 3.976c-1.008-1.296-2.169-2.31-3.564-3.173l2.295-3.977c1.396.864 2.557 1.878 3.565 3.174m-4.496 7.643-2.295 3.977c-1.008-1.296-2.169-2.31-3.564-3.173l2.295-3.976c1.396.863 2.556 1.877 3.564 3.173Z"></path><rect width="1.993" height="48.005" x="42.658" y="12.566" fill="currentColor" rx=".996" transform="rotate(30 42.658 12.566)"></rect><path fill="currentColor" d="m17.628 15.61 2.296 3.976c1.394-.863 2.556-1.878 3.564-3.173l-2.296-3.977c-1.008 1.296-2.17 2.311-3.564 3.173Zm4.582 7.898 2.296 3.976c1.394-.862 2.556-1.877 3.564-3.173l-2.296-3.977c-1.008 1.297-2.17 2.311-3.564 3.174"></path><path stroke="#597398" d="m4.45 20.94-.014.009-.008.005-.008.005-.013.007-.14.09a12.4 12.4 0 0 0-3.19 2.865l6.569 11.377c.972-1.168 2.085-2.105 3.39-2.908l.009-.005.008-.005c1.418-.799 2.893-1.392 4.41-1.907l.006-.002a143 143 0 0 1 2.29-.718h.001c.687-.212 1.37-.422 2.048-.64l.15-.05.01-.002.006-.002.04-.014.21-.073c1.336-.462 2.614-.983 3.835-1.654l.165-.09.013-.008.008-.005.009-.005.013-.008.145-.092a12.4 12.4 0 0 0 3.19-2.865l-6.57-11.377c-.966 1.162-2.072 2.096-3.37 2.896l-.007.005-.009.004c-1.42.804-2.9 1.399-4.419 1.916l-.006.002c-.766.25-1.536.486-2.3.722h-.002c-.686.211-1.37.421-2.049.64l-.12.04-.006.001-.005.002-.051.016-.233.081c-1.337.463-2.615.984-3.836 1.655z"></path><path fill="currentColor" d="m15.61 21.415 2.296 3.977c1.496-.51 2.94-1.09 4.318-1.867l-2.296-3.976c-1.38.777-2.822 1.357-4.318 1.866"></path><path fill="currentColor" d="m8.792 18.913 2.296 3.976c1.518-.494 3.052-.937 4.57-1.43l-2.296-3.977c-1.518.494-3.052.937-4.57 1.43Zm4.591 7.716 2.296 3.976c1.518-.494 3.052-.936 4.57-1.43l-2.296-3.977c-1.517.494-3.051.937-4.57 1.43Z"></path><path fill="currentColor" d="M6.849 24.622 9.145 28.6c1.379-.777 2.822-1.358 4.318-1.867l-2.296-3.976c-1.497.51-2.94 1.09-4.318 1.866Z"></path><path fill="currentColor" d="M1.104 23.881 3.4 27.858c1.008-1.297 2.169-2.31 3.564-3.174l-2.296-3.976c-1.395.863-2.556 1.877-3.564 3.173M5.6 31.525l2.295 3.977c1.008-1.296 2.169-2.31 3.564-3.173l-2.296-3.977c-1.395.863-2.556 1.877-3.564 3.173Z"></path><rect width="1.993" height="48.006" fill="currentColor" rx=".996" transform="scale(-1 1)rotate(30 -34.156 -33.718)"></rect></g></symbol><symbol id="icon-guiding-refresher-basics" viewBox="0 0 128 128"><path d="M98.621 94.663c0-.55-.457-1.008-1.02-1.008-.059 0-.106 0-.164.011a74.4 74.4 0 0 1-11.693.927c-11.365 0-20.935-2.756-25.614-7.377-2.627-2.592-3.648-5.653-2.944-8.831.997-4.539 5.489-8.996 12.361-12.49l-13.944 4.609c-.552 4.245-1.994 7.951-4.105 10.344-1.232 1.419-3.401 2.709-6.157 3.682 2.615 2.44 4.597 5.806 5.91 10.04a.9.9 0 0 1-.574 1.114l-12.127 4.01a.8.8 0 0 1-.281.048 1 1 0 0 1-.41-.094.9.9 0 0 1-.447-.528c-.738-2.38-1.724-4.504-2.92-6.298-2.228-3.307-4.773-4.844-6.368-5.524-.246-.058-.481-.105-.715-.164l-5.56-1.478a17.5 17.5 0 0 0-4.433-.575c-1.184 0-2.357.13-3.507.364-5.98 3.577-9.405 7.858-9.57 11.963v16.724c.059 2.099.997 4.152 2.885 6.016.27.27.563.528.868.774.094.083.2.153.294.235.21.176.434.34.668.504.117.082.246.176.364.258l.703.458c.13.082.247.152.376.234.281.164.574.329.88.481.093.047.175.106.28.153.4.199.81.398 1.232.586.106.047.211.082.305.129.328.141.657.281 1.009.41.152.059.316.118.469.176.305.118.61.223.926.329.164.058.34.117.516.164.329.106.669.211 1.009.305.152.047.305.094.47.129q.738.212 1.512.387c.516.117 1.044.235 1.583.34.165.035.34.059.505.094.375.07.75.141 1.137.199.2.035.399.059.598.094.376.059.751.106 1.126.153l.598.07 1.314.141c.14.011.293.035.434.047.586.047 1.173.093 1.77.129.141 0 .294.011.435.023.457.024.915.047 1.384.059.21 0 .422 0 .633.011.41 0 .82.012 1.231.024h.61c.75 0 1.513-.012 2.276-.047.093 0 .187 0 .281-.012.692-.023 1.396-.07 2.1-.117.175 0 .34-.023.515-.035a78 78 0 0 0 2.299-.211c.153-.012.293-.036.446-.047.68-.082 1.372-.164 2.052-.258.153-.024.305-.035.446-.059.774-.117 1.548-.234 2.322-.375.176-.035.34-.059.516-.094.715-.129 1.42-.27 2.134-.422.094-.024.188-.035.282-.059.774-.176 1.548-.363 2.322-.551.176-.047.352-.094.54-.141.774-.211 1.56-.422 2.322-.657L97.4 109.593a1.9 1.9 0 0 0 1.314-1.806v-.551a3 3 0 0 1-.082-.633V94.687zM66.557 100.2c-1.56.469-3.378.317-4.046-.352-.68-.668.046-1.595 1.606-2.064s3.378-.317 4.046.352c.68.668-.046 1.595-1.606 2.064M68.01 96c-1.56.47-3.378.317-4.046-.352-.669-.668.047-1.594 1.607-2.064 1.56-.469 3.377-.316 4.046.352.668.669-.047 1.595-1.607 2.064m6.228 1.713c-1.56.469-3.378.316-4.047-.352-.668-.669.047-1.595 1.607-2.064s3.378-.317 4.046.352c.669.668-.047 1.594-1.606 2.064m53.749-24.535v16.29c.024 1.607-.457 3.237-1.395 4.843-.704 1.208-1.666 2.405-2.874 3.566-3.612 3.483-9.394 6.661-16.876 8.925l-4.832 1.595a2.3 2.3 0 0 1-.54.094c-.094 0-.176 0-.27-.012-.047 0-.082 0-.129-.012a1.5 1.5 0 0 1-.387-.117c-.011 0-.023-.012-.035-.023a1.4 1.4 0 0 1-.316-.176c-.036-.024-.071-.059-.106-.082-.07-.059-.141-.118-.199-.188a1 1 0 0 1-.094-.117 2 2 0 0 1-.153-.212l-.07-.14a6 6 0 0 1-.106-.27c-.011-.047-.035-.082-.046-.129a1.8 1.8 0 0 1-.047-.434V94.663c0-.14-.012-.281-.047-.41 0-.047-.024-.082-.036-.13-.023-.081-.047-.175-.082-.245a1 1 0 0 0-.07-.13 1 1 0 0 0-.129-.199 1 1 0 0 0-.106-.117c-.047-.047-.082-.094-.129-.14 0 0-.011-.013-.023-.024a1 1 0 0 0-.13-.106c-.058-.047-.116-.082-.187-.129-.047-.023-.093-.058-.14-.082a2 2 0 0 0-.212-.082.7.7 0 0 0-.164-.047.7.7 0 0 0-.223-.035c-.058 0-.105-.012-.164-.012h-.07c-.082 0-.164 0-.258.024h-.047c-.962.152-1.912.281-2.873.398-.329.035-.657.059-.986.094-.621.07-1.254.14-1.876.188-.387.035-.774.047-1.161.07-.563.035-1.126.082-1.677.094l-1.208.035c-.528.012-1.067.035-1.595.035h-.188c-.739 0-1.466-.011-2.193-.035-.176 0-.352-.011-.528-.023a47 47 0 0 1-1.865-.106c-.246-.012-.48-.035-.715-.059l-.457-.035c.082 0 .152 0 .234.012h-.105l-1.513-.14c-.153-.012-.317-.036-.47-.048a61 61 0 0 1-2.204-.316c-.188-.035-.364-.059-.54-.094a67 67 0 0 1-1.63-.305c-.211-.047-.422-.094-.645-.14a60 60 0 0 1-1.689-.411c-.117-.035-.234-.059-.34-.082a40 40 0 0 1-1.888-.575l-.493-.176a35 35 0 0 1-1.337-.504l-.528-.211a25 25 0 0 1-1.477-.68c-.059-.024-.118-.047-.165-.083a26 26 0 0 1-1.489-.844 21 21 0 0 1-.399-.258 17 17 0 0 1-.997-.692c-.129-.094-.246-.188-.375-.282-.41-.328-.797-.656-1.161-1.008a12.5 12.5 0 0 1-1.126-1.29c-3.213-4.27-1.888-9.265 2.98-13.699 3.048-2.78 7.482-5.336 13.052-7.365.082-.035.165-.058.258-.094l2.135-.703c1.114 1.067 2.604 1.97 4.421 2.674.047.023.106.035.153.047.047.023.105.035.152.047 1.736.645 3.718 1.114 5.923 1.383 1.525.188 3.155.294 4.867.294 2.592 0 5.23-.258 7.799-.716.047 0 .094-.023.153-.023.047 0 .094-.024.152-.024v3.472c0 .047-.012.082-.023.129-.118 1.794-2.346 3.6-5.782 4.644a20.1 20.1 0 0 1-5.712.833c-2.944 0-5.559-.68-6.849-1.959-.469-.457-.739-.973-.797-1.524V68.17c-1.326.797-2.31 1.689-2.909 2.615-6.345 3.155-8.737 7.658-5.266 11.083 4.246 4.199 15.645 5.196 25.462 2.228s14.331-8.772 10.074-12.97c-1.22-1.209-3.131-2.182-5.336-2.839a3.6 3.6 0 0 0-.387-.47 6.6 6.6 0 0 0-1.196-.914 45 45 0 0 0 3.412-.856h.059l.106-.035 4.667-1.373a6.34 6.34 0 0 0 3.531-2.638s.058-.094.093-.141c.036 0 .071.012.094.023 2.686.751 5.078 1.724 7.072 2.92 1.196.716 2.24 1.502 3.12 2.37.234.234.457.469.668.715.411.481.774.974 1.068 1.466.152.246.281.505.398.75.235.505.423 1.021.54 1.537s.199 1.044.211 1.572zm-30.692 3.588c3.976-1.196 6.826-3.19 7.67-5.277.047-.13.117-.258.153-.387 0-.035.035-.07.035-.106.058-.211.058-.422.07-.633h.035v5.078c-.211 2.463-3.26 4.867-7.975 6.298a27.7 27.7 0 0 1-7.858 1.15c-4.046 0-7.635-.939-9.406-2.686-.715-.704-1.09-1.49-1.114-2.334v-4.785h.024c.023.2.07.398.129.586a3.8 3.8 0 0 0 .973 1.572c1.771 1.747 5.36 2.685 9.406 2.685 2.557 0 5.29-.375 7.858-1.149zm2.58-25.649c.141-1.76.235-3.413.293-4.973.141 0 .294 0 .434.024.211.012.434.035.645.059.165.023.34.046.505.07.211.035.422.082.633.129.164.035.328.07.492.117.212.059.423.13.622.188.153.058.317.105.469.164.211.082.411.176.61.258.153.07.293.129.446.2.211.105.41.222.61.34.129.082.269.152.398.234.223.14.423.293.634.446.105.082.211.152.316.234.305.247.61.505.892.786l5.324 5.207c1.771 1.736 2.041 4.21 1.138 6.181-.129.282-.27.54-.446.797 0 0-.047.083-.082.118a5.34 5.34 0 0 1-2.885 2.04l-4.668 1.373h-.07c-.927.281-1.865.516-2.803.727-.211.047-.434.094-.645.14-.399.083-.798.141-1.185.212l-.223.035c-.058 0-.105.023-.164.035-.058 0-.105.023-.164.035-.352.059-.704.14-1.055.188-.118.012-.235.023-.352.047-.856.117-1.7.21-2.557.27-.2.011-.399.035-.61.046-.446.036-.891.036-1.337.047-.457.012-.926.047-1.384.047h-.164c-.47 0-.938 0-1.407-.023-.106 0-.2 0-.305-.012a65 65 0 0 1-1.595-.094h-.153a34 34 0 0 1-1.618-.187c-.106-.012-.223-.036-.329-.047a52 52 0 0 1-1.536-.258c-.07-.012-.14-.035-.211-.047-.47-.094-.915-.2-1.36-.317-.071-.023-.141-.035-.2-.047a32 32 0 0 1-1.349-.41c-.094-.035-.176-.059-.27-.094-.152-.059-.304-.106-.457-.164-.047-.024-.094-.035-.152-.059-.047-.023-.094-.035-.153-.059-.164-.07-.34-.129-.492-.21-.035-.012-.07-.036-.106-.048a18 18 0 0 1-1.067-.54 4 4 0 0 0-.2-.105c-.34-.199-.668-.41-.973-.633l-.176-.14c-.152-.118-.293-.224-.434-.353h.024l-.258-.222c-.059-.047-.13-.094-.176-.153-.106-.105-.2-.223-.294-.328a6.3 6.3 0 0 1-.738-.974 5 5 0 0 1-.563-1.36 4.7 4.7 0 0 1-.118-1.407c.024-.235.06-.47.106-.716.164-.715.48-1.43.938-2.134.305-.47.68-.939 1.126-1.396.434-.457.938-.915 1.501-1.349.235-.187.481-.363.74-.551l-.036.223v.223c.035.774.375 1.5.997 2.11 1.278 1.256 3.706 1.983 6.661 1.983 1.783 0 3.6-.27 5.278-.774 3.436-1.044 5.348-2.78 5.676-5.16zM70.661 15.57c.247.235.552.54.868.892.317.352.669.75.997 1.196.27.363.54.75.786 1.161.117.188.223.375.329.563.234.434.457.891.633 1.372.2.551.293 1.09.316 1.654q.036.826-.07 1.689c-.047.375-.094.762-.152 1.149-.212 1.548-.434 3.143-.012 4.89.14.587.352 1.185.668 1.807.13.27.282.527.446.797.504.81 1.138 1.619 1.794 2.475 1.795 2.31 3.847 4.973 4.774 8.937.281 1.184.445 2.498.48 3.94.024.856-.023 1.771-.105 2.745 0 .117-.012.234-.023.351-.024.223-.059.446-.094.669-.047.34-.082.68-.141 1.032v.047c0 .27.07.54.2.786.128.246.293.492.527.715 1.138 1.126 3.436 1.724 6.028 1.724 1.63 0 3.378-.234 5.02-.739 3.073-.926 4.762-2.416 5.043-4.433.117-1.419.2-2.768.258-4.058a18 18 0 0 0 .023-.786c0-.304.024-.598.036-.89v-.2c.035-1.232.035-2.393.023-3.495 0-.551-.023-1.091-.035-1.619-.094-2.615-.317-4.879-.633-6.814a41 41 0 0 0-.41-2.181c-.517-2.38-1.162-4.187-1.807-5.536a15 15 0 0 0-.551-1.055c-.903-1.584-1.724-2.322-2.088-2.604a4 4 0 0 0 .41-.669c.106-.234.2-.48.247-.727l1.29-5.735a3.2 3.2 0 0 0 .082-.89l-.14-5.302A3.6 3.6 0 0 0 94 5.471l-4.574-2.885a3.56 3.56 0 0 0-1.712-.55V2h-1.876c-.188 0-.4.012-.61.023h-.176c-.282.012-.575.036-.892.06-.07 0-.152.01-.234.023l-.739.07c-.117.012-.234.035-.364.047a14 14 0 0 0-.691.094c-.141.023-.27.047-.41.058-.235.035-.47.082-.716.13-.141.023-.27.046-.41.081-.27.059-.552.118-.822.188-.105.023-.223.047-.328.082-.387.094-.774.2-1.161.329a4 4 0 0 0-.2.07c-.316.105-.633.211-.938.328-.129.047-.258.106-.387.153-.246.105-.504.21-.739.316-.14.06-.281.13-.41.2-.235.117-.458.234-.692.363-.13.07-.27.153-.399.235-.234.14-.457.293-.68.457-.106.082-.223.153-.329.235-.316.246-.633.492-.914.774a9.06 9.06 0 0 0-2.498 4.07 10.8 10.8 0 0 0-.41 3.014 2.97 2.97 0 0 0 .95 2.17zm4.187-3.542 1.255-4.14a1.88 1.88 0 0 1 1.302-1.278l9.582-2.803a1.93 1.93 0 0 1 1.56.223l4.574 2.885c.54.34.88.927.891 1.572l.14 5.3c0 .153 0 .317-.046.47l-1.29 5.735a1.93 1.93 0 0 1-1.337 1.419l-4.117 1.208a2 2 0 0 1-.54.082 1.9 1.9 0 0 1-.973-.27l-7.6-4.503a1.8 1.8 0 0 1-.598-.563l-2.544-3.671a1.89 1.89 0 0 1-.259-1.654v-.011Zm1.736.927c0-1.466 1.22-2.65 2.721-2.65s2.721 1.184 2.721 2.65-1.22 2.65-2.72 2.65c-1.502 0-2.722-1.184-2.722-2.65m4.34-4.691a.94.94 0 0 1-.094-.845.92.92 0 0 1 .621-.574l3.495-1.02a.93.93 0 0 1 .728.081.9.9 0 0 1 .445.587l1.595 6.204a.93.93 0 0 1-.645 1.138l-1.384.398a.96.96 0 0 1-1.056-.387l-3.705-5.594zm-37.448 81.17L35.29 92.13c-1.408-2.064-2.932-3.46-4.293-4.421.434.023.868.046 1.302.046 2.053 0 4.07-.316 6.005-.938l5.172-1.665v4.28Zm-8.022 2.955 3.213-1.067 4.891-1.619c1.325 1.806 2.357 3.824 3.167 6.17l-8.374 2.767c-.74-2.357-1.712-4.456-2.897-6.263zM6.978 66.352l9.805-2.498c3.483-.927 6.345-2.756 7.951-5.055q.3-.44.669-.844c.48-.54 1.032-1.056 1.642-1.525.61-.47 1.29-.903 2.029-1.29a17.8 17.8 0 0 1 3.624-1.408l13.252-3.495a9 9 0 0 1 .563.024q.211 0 .423.035c.152.024.305.07.445.106s.282.07.41.117a3 3 0 0 1 .435.188c.129.058.27.117.398.187.141.082.282.176.423.27.129.082.258.164.387.258.14.106.27.223.399.34.117.106.246.2.363.317.13.129.258.27.387.41.117.13.235.247.34.376.13.152.235.316.364.469.105.14.223.281.316.434.118.164.223.352.34.527.094.165.2.317.294.481.105.188.2.387.305.587.093.175.187.352.27.527.093.212.187.434.28.645.083.188.165.376.236.575.082.223.164.47.246.704.07.2.14.399.21.61.083.246.142.516.212.774l.176.621c.07.27.117.563.176.845.047.21.094.41.129.621.059.294.094.61.14.915.036.211.07.41.094.622.047.351.07.715.106 1.079.012.176.035.34.047.504.035.54.059 1.09.07 1.642a29 29 0 0 1-.223 4.093c-.023.223-.058.446-.093.657a25.4 25.4 0 0 1-.927 4.034c-.129.41-.281.821-.434 1.208-.668 1.677-1.501 3.108-2.463 4.199-.14.164-.305.328-.469.492-.528.493-1.196.986-2.017 1.455-1.032.598-2.299 1.15-3.788 1.642-.094.035-.188.07-.282.093l-.551.176-.352.118L38 85.938a18 18 0 0 1-1.349.375c-.152.035-.305.059-.457.094q-.457.105-.915.176c-.176.035-.364.047-.54.07-.281.035-.562.07-.832.094l-.587.035-.809.035h-.246c-.153 0-.305 0-.458-.011-.175 0-.34 0-.516-.012-.258-.012-.504-.035-.762-.059-.164-.012-.328-.023-.48-.047-.282-.035-.552-.082-.833-.129-.07 0-.13-.023-.2-.035l-.2-.035c-.14-.024-.28-.07-.421-.094-.258-.059-.528-.105-.786-.176l-1.396-.375-.422-.117-3.741-.997c-.399-.106-.81-.2-1.208-.27-.141-.023-.27-.047-.41-.07a21 21 0 0 0-.822-.13 7 7 0 0 0-.492-.046c-.258-.024-.505-.047-.763-.059-.175 0-.351-.012-.516-.012-.152 0-.305-.011-.445-.011h-.247q-.405 0-.809.035h-.293c-.094 0-.188.011-.293.023-.282.024-.563.059-.845.094-.14.023-.281.023-.422.047a.4.4 0 0 0-.117.023c-.305.047-.61.118-.915.176-.152.035-.305.059-.446.094-.457.106-.903.235-1.348.375l-2.592.833c1.677-1.994 2.72-5.371 2.662-9.23-.082-5.043-2.076-9.148-4.773-10.32l.023.07ZM4.433 86.747a3 3 0 0 1-.27-.117c-.082-.036-.164-.07-.246-.118a2 2 0 0 1-.258-.164 3 3 0 0 1-.234-.152c-.082-.059-.165-.141-.247-.211a3 3 0 0 1-.223-.2 2.5 2.5 0 0 1-.234-.258c-.07-.07-.14-.152-.211-.234-.082-.094-.153-.2-.223-.294a2 2 0 0 1-.188-.258 9 9 0 0 1-.21-.34 5 5 0 0 1-.177-.293c-.07-.117-.129-.246-.2-.375-.058-.106-.105-.211-.163-.317-.059-.129-.118-.27-.176-.41-.047-.118-.094-.223-.14-.34-.06-.141-.106-.305-.165-.458-.035-.117-.082-.234-.117-.352l-.141-.492C.575 81.246.54 81.118.504 81c-.047-.176-.082-.352-.117-.528-.023-.129-.059-.246-.082-.387-.035-.187-.059-.387-.094-.574-.023-.13-.035-.247-.059-.364l-.07-.68c0-.106-.023-.2-.035-.305A27 27 0 0 1 0 77.142c0-.692.012-1.373.082-2.018.13-1.313.387-2.533.762-3.612.634-1.83 1.584-3.249 2.71-4.01.281-.188.563-.33.867-.423.27-.094.552-.152.845-.164h.129c.07 0 .152.011.223.023a1 1 0 0 1 .258.024c.094.011.187.047.281.07.082.023.164.035.247.07.093.036.187.082.281.118.082.035.164.07.246.117.094.047.176.105.27.164a2.8 2.8 0 0 1 .493.363c.07.06.14.118.21.188.083.082.165.176.247.258.07.07.14.141.2.223.081.094.152.2.234.305.059.082.129.164.188.247.082.117.152.234.222.351.06.094.118.176.165.282.07.129.14.258.199.398.047.106.106.2.152.294.07.14.13.293.188.434.047.105.094.21.13.316.058.153.105.305.163.47.035.117.082.222.118.351l.14.493c.036.117.07.234.106.364.047.175.082.363.117.539.024.117.059.235.082.364.035.187.059.398.094.598.024.117.035.234.059.352.023.222.047.445.07.68 0 .105.024.2.035.305.024.328.035.668.047 1.02.035 2.076-.281 4.011-.832 5.641a13 13 0 0 1-.634 1.513c-.48.927-1.044 1.677-1.689 2.217a3.65 3.65 0 0 1-1.56.797c-.058.012-.117.012-.187.024a2 2 0 0 1-.364.047c-.117 0-.234 0-.352-.024-.058 0-.129 0-.187-.012h-.07c-.094-.011-.188-.046-.282-.07l-.258-.07z"></path></symbol><symbol id="icon-guiding-refueling" viewBox="0 0 64 64"><path d="M29.9 31.43a7.8 7.8 0 0 0-7.85 7.84 7.8 7.8 0 0 0 7.85 7.85 7.8 7.8 0 0 0 7.84-7.85 7.8 7.8 0 0 0-7.84-7.84"></path><path d="M56.76 37.73c-1.22-3.1-5.1-5.98-4.87-9.7a1.65 1.65 0 0 0 1.61-1.46l.94-9.25c.02-.15 0-.3-.02-.44.1-.58-.08-1.2-.54-1.62l-6.24-5.62a2.05 2.05 0 0 0-2.4-.17c-.03-2.7-.6-5.26-4.15-5.47H18.5a4.12 4.12 0 0 0-4.11 4.11V55.3H6.9c-.5 0-.91.4-.91.9v3.33c0 .5.4.9.9.9H52.7c.5 0 .91-.4.91-.9v-3.32c0-.5-.4-.91-.9-.91H45.2V36.17c2.86 1.58 2.02 9.1 2.11 11.52 0 0 .23 4.99 3.58 5.56 4.37.77 5.35-.2 6.2-1.9 1.42-2.8 1.06-10.09-.34-13.62ZM17.69 9.71c0-.9.74-1.64 1.64-1.64h20.88c.9 0 1.64.74 1.64 1.64v9.59c0 .9-.75 1.64-1.64 1.64H19.34c-.9 0-1.64-.73-1.64-1.64V9.7Zm21.05 29.56a8.83 8.83 0 0 1-8.84 8.85 8.83 8.83 0 0 1-8.85-8.85 8.83 8.83 0 0 1 8.85-8.84 8.83 8.83 0 0 1 8.84 8.84m15.5 11.11c-.98 1.23-4.04.28-4.22-2.54-.17-2.52-.13-6.93-.99-10.87a5.14 5.14 0 0 0-3.82-3.94V15.02c.26.92 1.04 1.67 3.24 4.3L47.9 26c0 .75.49 1.42 1.17 1.7-.27 4.09 5 8.37 5.45 11.58.37 1.84 1.56 8.6-.28 11.11Z"></path><path d="M39.66 11.87H20.13a1.17 1.17 0 0 1 0-2.34h19.53a1.17 1.17 0 0 1 0 2.34"></path></symbol><symbol id="icon-guiding-salvaging" viewBox="0 0 64 64"><path d="M44.964 44.342c.03 3.655.235 7.82-.803 10.46-.817.022-2.54.323-2.98-.17-.704-.727-.075-2.866-.86-3.695l-.172.17-.057-.227c.285-.606.512-.822.172-1.592l-.516.114c-.143.789.103 1.584-.057 2.387l-.917 4.434c-.149.67-.075 1.874-.516 2.274-.6.616-2.676.342-3.84.342-2.825 0-6.213.534-8.655-.342l-1.146-6.423c-.245-1.234.183-2.083-.287-2.786l-.802.057c.04 1.87.085 4.553-.917 5.457-3.474.084-3.293-.196-3.21-3.638l-.344-.057v-.057l.172-1.194-.229-1.25c.101-.909.405-3.136.115-4.207l4.527-.057v1.99c.12.134.176.107.23.34l.172-.056c.855-1.31.032-2.897.344-4.662.091-.52.599-1.188.515-1.364l-.114-.341-.63-.057q-.03-1.791-.058-3.581c-.42.053-1.596.217-1.891-.057-.344-.793-.34-2.114-.344-3.127h-.459v-.17l.287-.057v-.967c-.284-.046-.171.038-.287-.17h.459l-.058-8.698-.63-1.08.057-3.639c-.23-2.382-.282-6.498.459-8.357.516-1.297-.553-4.12.286-5.059.373-.176 2.085-.35 2.35-.114l.63.967 1.491.057.057 4.49c.385.013.505.073.63.342.173.647-.2.752-.286 1.307l-.057 3.07.057 8.186.516.91c.085.327.338 3.506 0 3.638l.573 1.137h.459v-.455c.57-.035.908-.15 1.318.057l-.057.569.343.057.516-1.308.516-.057-.172-.057c1.085-.09 2.136-.029 2.923.285l.287 1.137h.401c-.021-.36-.041-.6.172-.74l.802-.113c.26.184.336.167.344.625h.459c.77-1.607.13-2.696.516-4.661.093-.473.448-.636.573-.967.188-.498-.166-1.163-.172-1.421l.23-.91V15.35c0-1.29.186-3.033-.345-3.809l.23-.852h.4c-.012-1.605-.321-3.14.058-4.548 1.58.105 1.472-.389 2.235-1.137q1.342-.033 2.293.34c-.006 2.006.071 4.624.573 5.913v6.48l.057 4.72-.573.738-.057 4.832c-.497 2.615.459 6.175-.401 8.641h-1.777l-.23 3.582h-.458c-.066.297-.155.313-.286.512.385.093.593.324.573.852.443 1.749-.294 3.624.344 4.946h.229c.066-.186.079-.154.172-.284l.057-1.933h4.47Z" clip-rule="evenodd"></path></symbol><symbol id="icon-guiding-touring" viewBox="0 0 64 64"><path d="M32.321 28.364a12.3 12.3 0 0 0 4.544 1.422c.372.04.747.06 1.113.06 1.3 0 2.49-.253 3.442-.731 1.042-.514 1.788-1.37 1.997-2.29l.001-.004c.226-.922.006-1.98-.619-2.981-1.137-1.79-3.258-3.242-5.816-3.98a11.6 11.6 0 0 0-3.171-.462c-.647 0-1.273.063-1.862.187-1.28.268-2.328.836-2.95 1.6l-.004.004a3 3 0 0 0-.7 1.719 3.884 3.884 0 0 1 4.163 2.631c.171.382.247.77.225 1.155.001.13-.017.253-.038.376a3.9 3.9 0 0 1-.325 1.294m5.944 3.407c-1.247 0-2.497-.172-3.714-.51a14.5 14.5 0 0 1-3.454-1.371 3.9 3.9 0 0 1-2.328.773 3.897 3.897 0 0 1-3.893-3.892 3.9 3.9 0 0 1 1.137-2.745c-.128-.64-.143-1.212-.046-1.744.208-1.09.752-2.022 1.574-2.698 1.015-.879 2.515-1.478 4.222-1.689a13 13 0 0 1 1.53-.09c1.397 0 2.79.214 4.141.634a14.6 14.6 0 0 1 3.94 1.783c1.214.79 2.22 1.72 2.987 2.766 1.288 1.777 1.375 3.272 1.22 4.217-.141 1.256-.973 2.477-2.226 3.269-.98.63-2.242 1.051-3.645 1.217-.473.053-.959.08-1.445.08m-7.91-17.891c-.524 0-1.051.017-1.566.052-2.158.149-5.267.695-7.82 2.46-1.82 1.237-3.088 3.04-3.482 4.947-.384 1.76-.099 3.71.824 5.645.726 1.519 1.804 2.98 3.205 4.345 1.914 1.86 4.37 3.474 7.102 4.67 3.338 1.447 6.926 2.24 10.374 2.295l.32.002c2.169 0 5.313-.314 8.12-1.79a3.5 3.5 0 0 1-.223-1.233 3.607 3.607 0 0 1 3.602-3.604q.537 0 1.06.163a7.7 7.7 0 0 0 .304-4.192c-.451-2.305-1.828-4.638-3.982-6.749-2.15-2.101-4.95-3.867-8.097-5.106-3.186-1.247-6.555-1.905-9.74-1.905m9.06 26.632c-2.05 0-4.146-.24-6.232-.715a30 30 0 0 1-9.09-3.579c-2.79-1.678-5.042-3.664-6.694-5.902-1.454-1.97-2.33-3.993-2.601-6.012-.284-2.067.102-4.05 1.116-5.736 1.027-1.836 2.876-3.427 5.208-4.48C23.54 12.983 26.51 12.4 29.71 12.4h.1c3.671.007 7.437.775 11.195 2.282 3.136 1.288 5.86 2.978 8.099 5.023 2.334 2.13 3.984 4.535 4.772 6.953.732 2.257.692 4.583-.11 6.572.425.61.65 1.312.65 2.042a3.607 3.607 0 0 1-3.605 3.603c-.67 0-1.32-.186-1.888-.537a16.2 16.2 0 0 1-3.17 1.31c-1.96.573-4.092.863-6.336.863m-4.204 2.3c2.059 0 4.022.771 5.529 2.172a8.1 8.1 0 0 1 2.543 5.012c.273-.028.547-.067.814-.104l.444-.06c4.937-.717 9.332-2.562 12.376-5.195 1.922-1.645 3.365-3.651 4.174-5.802 1.023-2.67 1.122-5.681.289-8.71-.731-2.675-2.14-5.303-4.19-7.812a31.4 31.4 0 0 0-4.888-4.752 2.4 2.4 0 0 1-1.351.417c-1.352 0-2.45-1.1-2.45-2.451q0-.293.08-.597c-3.598-2.214-7.589-3.91-11.863-5.042-3.67-.974-7.369-1.468-10.993-1.468-1.101 0-2.204.047-3.276.14-3.492.302-6.813 1.13-9.624 2.397q.082.39.082.78a3.86 3.86 0 0 1-3.857 3.856 3.8 3.8 0 0 1-2.09-.62 15.4 15.4 0 0 0-1.432 1.71 13.1 13.1 0 0 0-2.506 7.278c-.087 2.55.523 5.175 1.814 7.803 1.464 2.972 3.685 5.77 6.602 8.313 4.388 3.81 9.923 6.723 16.02 8.434a8.2 8.2 0 0 1 2.783-3.999 8.04 8.04 0 0 1 4.97-1.7m0 16.265c-1.69 0-3.31-.515-4.685-1.49a8.13 8.13 0 0 1-2.923-3.793c-.388-.788-.576-1.599-.56-2.412a1 1 0 0 1-.003-.095c-6.1-1.62-11.776-4.401-16.417-8.045-2.68-2.11-4.92-4.444-6.657-6.935-2.784-3.983-4.15-8.203-3.949-12.202.137-2.946 1.167-5.776 2.978-8.183L3 15.92a19 19 0 0 1 2.502-2.682 3.8 3.8 0 0 1-.308-1.5A3.86 3.86 0 0 1 9.052 7.88c1.168 0 2.275.536 3.006 1.444 2.863-1.138 6.055-1.858 9.492-2.143a42 42 0 0 1 3.416-.139c3.912 0 7.89.528 11.825 1.57 3.44.934 6.609 2.133 9.42 3.563.907.452 1.838.966 2.988 1.653a2.43 2.43 0 0 1 1.754-.75 2.453 2.453 0 0 1 2.45 2.45c0 .355-.08.709-.236 1.037 2.199 1.7 4.115 3.55 5.698 5.5 1.984 2.454 3.418 5.023 4.262 7.637.482 1.529.767 3.05.846 4.523a14.7 14.7 0 0 1-.452 4.57c-.581 2.24-1.736 4.388-3.34 6.209-1.296 1.482-2.897 2.794-4.758 3.897-3.385 2.021-7.628 3.337-12.272 3.806a8.14 8.14 0 0 1-7.938 6.37"></path></symbol><symbol id="icon-guiding-trading" viewBox="0 0 64 64"><path d="M55 34 33.853 55l-3.992-3.96L41 39H9v-5zM30.099 8l3.983 3.961L22 24h33v5H9z"></path></symbol><symbol id="icon-guiding-vehicle-combat" viewBox="0 0 64 64"><path d="M39.294 21.008s-.94-1.286-1.54-2.098c-.598-.812-2.95-4.196-2.95-4.196l-2.137-6.97L31.983 7h-1.966l-.684.744-2.138 6.97s-2.351 3.384-2.95 4.196c-.598.812-1.539 2.098-1.539 2.098L8 46.147l.214 3.755 3.933-2.25-.128-1.167 3.778-4.095.086-.542 4.814 4.197.128 1.387s-6.284 7.884-7.01 8.73c-.728.846-.813 1.42-.813 1.42L13.045 61l8.806-6.022L24 53.552v-6.518l1.742-3.357 2.266-1.794s-.043.339-.129 1.219c-.085.88.599 2.605.599 2.605.813.398 2.256.325 2.522.307.266.018 1.71.091 2.522-.307 0 0 .684-1.726.599-2.605-.086-.88-.128-1.219-.128-1.219l2.265 1.794L38 47.034v6.518l2.149 1.426L48.955 61l.043-3.417s-.085-.575-.812-1.421-7.011-8.73-7.011-8.73l.128-1.387 4.814-4.197.086.542 3.778 4.095-.128 1.168 3.933 2.25.214-3.756-14.706-25.14Z"></path></symbol></svg>